<?xml version="1.0" encoding="UTF-8" standalone="no"?>
<!DOCTYPE svg PUBLIC "-//W3C//DTD SVG 1.1//EN" "http://www.w3.org/Graphics/SVG/1.1/DTD/svg11.dtd">
<svg width="100%" height="100%" viewBox="0 0 233 233" version="1.1" xmlns="http://www.w3.org/2000/svg" xmlns:xlink="http://www.w3.org/1999/xlink" xml:space="preserve" xmlns:serif="http://www.serif.com/" style="fill-rule:evenodd;clip-rule:evenodd;stroke-linecap:round;stroke-linejoin:round;">
    <g id="Artboard1" transform="matrix(0.215698,0,0,0.215698,0,0)">
        <rect x="0" y="0" width="1080" height="1080" style="fill:none;"/>
        <g id="Cars.svg" transform="matrix(19.3171,0,0,19.3171,540,746.885)">
            <g transform="matrix(1,0,0,1,-13,-5)">
                <path d="M4.535,9.144C3.967,9.144 3.455,9.056 2.999,8.88C2.543,8.696 2.155,8.428 1.835,8.076C1.515,7.716 1.267,7.272 1.091,6.744C0.915,6.208 0.827,5.584 0.827,4.872C0.827,4.168 0.915,3.544 1.091,3C1.267,2.448 1.515,1.988 1.835,1.62C2.155,1.244 2.543,0.96 2.999,0.768C3.455,0.576 3.967,0.48 4.535,0.48C5.311,0.48 5.951,0.64 6.455,0.96C6.959,1.272 7.363,1.768 7.667,2.448L6.095,3.264C5.983,2.912 5.807,2.632 5.567,2.424C5.335,2.208 4.991,2.1 4.535,2.1C3.999,2.1 3.567,2.276 3.239,2.628C2.919,2.972 2.759,3.476 2.759,4.14L2.759,5.484C2.759,6.148 2.919,6.656 3.239,7.008C3.567,7.352 3.999,7.524 4.535,7.524C4.983,7.524 5.339,7.404 5.603,7.164C5.875,6.916 6.075,6.62 6.203,6.276L7.691,7.14C7.379,7.78 6.967,8.276 6.455,8.628C5.951,8.972 5.311,9.144 4.535,9.144ZM13.527,9C13.207,9 12.939,8.9 12.723,8.7C12.515,8.5 12.383,8.232 12.327,7.896L12.255,7.896C12.159,8.304 11.947,8.616 11.619,8.832C11.291,9.04 10.887,9.144 10.407,9.144C9.775,9.144 9.291,8.976 8.955,8.64C8.619,8.304 8.451,7.86 8.451,7.308C8.451,6.644 8.691,6.152 9.171,5.832C9.659,5.504 10.319,5.34 11.151,5.34L12.147,5.34L12.147,4.944C12.147,4.64 12.067,4.4 11.907,4.224C11.747,4.04 11.479,3.948 11.103,3.948C10.751,3.948 10.471,4.024 10.263,4.176C10.055,4.328 9.883,4.5 9.747,4.692L8.691,3.756C8.947,3.38 9.267,3.088 9.651,2.88C10.043,2.664 10.571,2.556 11.235,2.556C12.131,2.556 12.803,2.752 13.251,3.144C13.699,3.536 13.923,4.108 13.923,4.86L13.923,7.62L14.511,7.62L14.511,9L13.527,9ZM11.067,7.908C11.363,7.908 11.615,7.844 11.823,7.716C12.039,7.588 12.147,7.38 12.147,7.092L12.147,6.348L11.283,6.348C10.587,6.348 10.239,6.584 10.239,7.056L10.239,7.236C10.239,7.468 10.311,7.64 10.455,7.752C10.599,7.856 10.803,7.908 11.067,7.908ZM15.703,9L15.703,2.7L17.479,2.7L17.479,4.068L17.539,4.068C17.571,3.892 17.627,3.724 17.707,3.564C17.787,3.396 17.891,3.248 18.019,3.12C18.155,2.992 18.315,2.892 18.499,2.82C18.683,2.74 18.899,2.7 19.147,2.7L19.459,2.7L19.459,4.356L19.015,4.356C18.495,4.356 18.107,4.424 17.851,4.56C17.603,4.696 17.479,4.948 17.479,5.316L17.479,9L15.703,9ZM22.691,9.144C22.083,9.144 21.571,9.048 21.155,8.856C20.739,8.656 20.367,8.376 20.039,8.016L21.083,6.96C21.307,7.208 21.555,7.404 21.827,7.548C22.099,7.692 22.407,7.764 22.751,7.764C23.103,7.764 23.347,7.712 23.483,7.608C23.619,7.496 23.687,7.348 23.687,7.164C23.687,6.868 23.475,6.692 23.051,6.636L22.367,6.552C20.951,6.376 20.243,5.728 20.243,4.608C20.243,4.304 20.299,4.028 20.411,3.78C20.531,3.524 20.695,3.308 20.903,3.132C21.119,2.948 21.375,2.808 21.671,2.712C21.975,2.608 22.315,2.556 22.691,2.556C23.019,2.556 23.307,2.58 23.555,2.628C23.811,2.668 24.035,2.732 24.227,2.82C24.427,2.9 24.607,3.004 24.767,3.132C24.935,3.252 25.099,3.388 25.259,3.54L24.239,4.584C24.039,4.384 23.811,4.228 23.555,4.116C23.307,3.996 23.051,3.936 22.787,3.936C22.483,3.936 22.267,3.984 22.139,4.08C22.011,4.176 21.947,4.304 21.947,4.464C21.947,4.632 21.991,4.764 22.079,4.86C22.175,4.948 22.351,5.012 22.607,5.052L23.315,5.148C24.699,5.332 25.391,5.964 25.391,7.044C25.391,7.348 25.327,7.628 25.199,7.884C25.071,8.14 24.887,8.364 24.647,8.556C24.415,8.74 24.131,8.884 23.795,8.988C23.467,9.092 23.099,9.144 22.691,9.144Z" style="fill:white;fill-rule:nonzero;"/>
            </g>
        </g>
        <g id="fi_truck.svg" transform="matrix(15.098,0,0,15.098,540,400.413)">
            <g transform="matrix(1,0,0,1,-12,-12)">
                <path d="M18.5,21C19.881,21 21,19.881 21,18.5C21,17.119 19.881,16 18.5,16C17.119,16 16,17.119 16,18.5C16,19.881 17.119,21 18.5,21Z" style="fill:none;fill-rule:nonzero;stroke:white;stroke-width:2px;"/>
                <path d="M5.5,21C6.881,21 8,19.881 8,18.5C8,17.119 6.881,16 5.5,16C4.119,16 3,17.119 3,18.5C3,19.881 4.119,21 5.5,21Z" style="fill:none;fill-rule:nonzero;stroke:white;stroke-width:2px;"/>
                <path d="M16,8L20,8L23,11L23,16L16,16L16,8Z" style="fill:none;fill-rule:nonzero;stroke:white;stroke-width:2px;"/>
                <rect x="1" y="3" width="15" height="13" style="fill:none;fill-rule:nonzero;stroke:white;stroke-width:2px;"/>
            </g>
        </g>
    </g>
</svg>
