<?xml version="1.0" encoding="UTF-8" standalone="no"?>
<!DOCTYPE svg PUBLIC "-//W3C//DTD SVG 1.1//EN" "http://www.w3.org/Graphics/SVG/1.1/DTD/svg11.dtd">
<svg width="100%" height="100%" viewBox="0 0 233 233" version="1.1" xmlns="http://www.w3.org/2000/svg" xmlns:xlink="http://www.w3.org/1999/xlink" xml:space="preserve" xmlns:serif="http://www.serif.com/" style="fill-rule:evenodd;clip-rule:evenodd;stroke-linecap:round;stroke-linejoin:round;">
    <g id="Artboard1" transform="matrix(0.215698,0,0,0.215698,0,0)">
        <rect x="0" y="0" width="1080" height="1080" style="fill:none;"/>
        <g id="Home.svg" transform="matrix(16.2762,0,0,16.2762,540,520.837)">
            <g transform="matrix(1,0,0,1,-35,-32)">
                <path d="M26,19L35,12L44,19L44,30C44,30.53 43.789,31.039 43.414,31.414C43.039,31.789 42.53,32 42,32L28,32C27.47,32 26.961,31.789 26.586,31.414C26.211,31.039 26,30.53 26,30L26,19Z" style="fill:none;fill-rule:nonzero;stroke:white;stroke-width:2px;"/>
                <path d="M32,32L32,22L38,22L38,32" style="fill:none;fill-rule:nonzero;stroke:white;stroke-width:2px;"/>
                <path d="M7.313,41.624L9.977,41.624C11.057,41.624 11.889,41.972 12.473,42.668C13.065,43.364 13.361,44.412 13.361,45.812C13.361,47.212 13.065,48.26 12.473,48.956C11.889,49.652 11.057,50 9.977,50L7.313,50L7.313,41.624ZM9.989,49.364C10.813,49.364 11.453,49.1 11.909,48.572C12.365,48.036 12.593,47.3 12.593,46.364L12.593,45.26C12.593,44.324 12.365,43.592 11.909,43.064C11.453,42.528 10.813,42.26 9.989,42.26L8.033,42.26L8.033,49.364L9.989,49.364ZM19.457,50C19.193,50 19.001,49.932 18.881,49.796C18.761,49.66 18.693,49.476 18.677,49.244L18.677,49.028L18.617,49.028C18.481,49.372 18.257,49.644 17.945,49.844C17.633,50.044 17.237,50.144 16.757,50.144C16.109,50.144 15.609,49.988 15.257,49.676C14.905,49.356 14.729,48.908 14.729,48.332C14.729,47.788 14.921,47.356 15.305,47.036C15.697,46.716 16.337,46.556 17.225,46.556L18.641,46.556L18.641,45.836C18.641,44.82 18.117,44.312 17.069,44.312C16.661,44.312 16.321,44.4 16.049,44.576C15.777,44.744 15.557,44.988 15.389,45.308L14.957,44.948C15.125,44.588 15.381,44.292 15.725,44.06C16.077,43.828 16.533,43.712 17.093,43.712C17.813,43.712 18.365,43.892 18.749,44.252C19.133,44.612 19.325,45.116 19.325,45.764L19.325,49.4L20.153,49.4L20.153,50L19.457,50ZM16.853,49.556C17.101,49.556 17.333,49.524 17.549,49.46C17.765,49.396 17.953,49.308 18.113,49.196C18.281,49.076 18.409,48.936 18.497,48.776C18.593,48.608 18.641,48.42 18.641,48.212L18.641,47.072L17.201,47.072C16.585,47.072 16.137,47.172 15.857,47.372C15.585,47.564 15.449,47.832 15.449,48.176L15.449,48.464C15.449,48.824 15.577,49.096 15.833,49.28C16.089,49.464 16.429,49.556 16.853,49.556ZM23.301,50.144C22.765,50.144 22.305,50.044 21.921,49.844C21.545,49.644 21.217,49.352 20.937,48.968L21.441,48.572C21.697,48.908 21.977,49.156 22.281,49.316C22.585,49.476 22.941,49.556 23.349,49.556C23.821,49.556 24.185,49.456 24.441,49.256C24.697,49.056 24.825,48.768 24.825,48.392C24.825,48.064 24.725,47.808 24.525,47.624C24.333,47.432 24.013,47.304 23.565,47.24L23.061,47.156C22.781,47.116 22.525,47.056 22.293,46.976C22.061,46.896 21.861,46.788 21.693,46.652C21.533,46.516 21.405,46.352 21.309,46.16C21.221,45.96 21.177,45.72 21.177,45.44C21.177,45.152 21.229,44.9 21.333,44.684C21.445,44.468 21.593,44.288 21.777,44.144C21.961,44 22.181,43.892 22.437,43.82C22.693,43.748 22.969,43.712 23.265,43.712C23.777,43.712 24.197,43.8 24.525,43.976C24.853,44.152 25.133,44.38 25.365,44.66L24.909,45.08C24.749,44.888 24.533,44.712 24.261,44.552C23.997,44.384 23.653,44.3 23.229,44.3C22.789,44.3 22.445,44.396 22.197,44.588C21.957,44.78 21.837,45.052 21.837,45.404C21.837,45.764 21.945,46.024 22.161,46.184C22.385,46.344 22.717,46.46 23.157,46.532L23.649,46.604C24.273,46.7 24.733,46.888 25.029,47.168C25.333,47.44 25.485,47.824 25.485,48.32C25.485,48.896 25.289,49.344 24.897,49.664C24.513,49.984 23.981,50.144 23.301,50.144ZM27.28,41.12L27.964,41.12L27.964,44.828L28,44.828C28.136,44.508 28.348,44.244 28.636,44.036C28.924,43.82 29.316,43.712 29.812,43.712C30.468,43.712 30.976,43.916 31.336,44.324C31.704,44.724 31.888,45.3 31.888,46.052L31.888,50L31.204,50L31.204,46.172C31.204,45.548 31.068,45.084 30.796,44.78C30.532,44.476 30.144,44.324 29.632,44.324C29.416,44.324 29.208,44.352 29.008,44.408C28.808,44.464 28.628,44.548 28.468,44.66C28.316,44.772 28.192,44.916 28.096,45.092C28.008,45.26 27.964,45.456 27.964,45.68L27.964,50L27.28,50L27.28,41.12ZM34.042,41.12L34.726,41.12L34.726,44.84L34.762,44.84C34.914,44.496 35.146,44.224 35.458,44.024C35.77,43.816 36.162,43.712 36.634,43.712C37.426,43.712 38.046,43.992 38.494,44.552C38.942,45.112 39.166,45.904 39.166,46.928C39.166,47.952 38.942,48.744 38.494,49.304C38.046,49.864 37.426,50.144 36.634,50.144C36.162,50.144 35.774,50.044 35.47,49.844C35.166,49.636 34.93,49.36 34.762,49.016L34.726,49.016L34.726,50L34.042,50L34.042,41.12ZM36.478,49.532C37.094,49.532 37.574,49.336 37.918,48.944C38.262,48.552 38.434,48.024 38.434,47.36L38.434,46.496C38.434,45.832 38.262,45.304 37.918,44.912C37.574,44.52 37.094,44.324 36.478,44.324C36.238,44.324 36.01,44.36 35.794,44.432C35.586,44.496 35.402,44.588 35.242,44.708C35.082,44.828 34.954,44.972 34.858,45.14C34.77,45.308 34.726,45.492 34.726,45.692L34.726,48.128C34.726,48.344 34.77,48.54 34.858,48.716C34.954,48.884 35.082,49.032 35.242,49.16C35.402,49.28 35.586,49.372 35.794,49.436C36.01,49.5 36.238,49.532 36.478,49.532ZM43.116,50.144C42.708,50.144 42.34,50.072 42.012,49.928C41.684,49.784 41.404,49.576 41.172,49.304C40.94,49.024 40.76,48.684 40.632,48.284C40.504,47.884 40.44,47.432 40.44,46.928C40.44,46.424 40.504,45.976 40.632,45.584C40.76,45.184 40.94,44.848 41.172,44.576C41.404,44.296 41.684,44.084 42.012,43.94C42.34,43.788 42.708,43.712 43.116,43.712C43.524,43.712 43.892,43.788 44.22,43.94C44.548,44.084 44.828,44.296 45.06,44.576C45.292,44.848 45.472,45.184 45.6,45.584C45.728,45.976 45.792,46.424 45.792,46.928C45.792,47.432 45.728,47.884 45.6,48.284C45.472,48.684 45.292,49.024 45.06,49.304C44.828,49.576 44.548,49.784 44.22,49.928C43.892,50.072 43.524,50.144 43.116,50.144ZM43.116,49.532C43.716,49.532 44.188,49.344 44.532,48.968C44.884,48.592 45.06,48.04 45.06,47.312L45.06,46.544C45.06,45.824 44.884,45.276 44.532,44.9C44.188,44.516 43.716,44.324 43.116,44.324C42.516,44.324 42.04,44.512 41.688,44.888C41.344,45.264 41.172,45.816 41.172,46.544L41.172,47.312C41.172,48.032 41.344,48.584 41.688,48.968C42.04,49.344 42.516,49.532 43.116,49.532ZM51.754,50C51.49,50 51.298,49.932 51.178,49.796C51.058,49.66 50.99,49.476 50.974,49.244L50.974,49.028L50.914,49.028C50.778,49.372 50.554,49.644 50.242,49.844C49.93,50.044 49.534,50.144 49.054,50.144C48.406,50.144 47.906,49.988 47.554,49.676C47.202,49.356 47.026,48.908 47.026,48.332C47.026,47.788 47.218,47.356 47.602,47.036C47.994,46.716 48.634,46.556 49.522,46.556L50.938,46.556L50.938,45.836C50.938,44.82 50.414,44.312 49.366,44.312C48.958,44.312 48.618,44.4 48.346,44.576C48.074,44.744 47.854,44.988 47.686,45.308L47.254,44.948C47.422,44.588 47.678,44.292 48.022,44.06C48.374,43.828 48.83,43.712 49.39,43.712C50.11,43.712 50.662,43.892 51.046,44.252C51.43,44.612 51.622,45.116 51.622,45.764L51.622,49.4L52.45,49.4L52.45,50L51.754,50ZM49.15,49.556C49.398,49.556 49.63,49.524 49.846,49.46C50.062,49.396 50.25,49.308 50.41,49.196C50.578,49.076 50.706,48.936 50.794,48.776C50.89,48.608 50.938,48.42 50.938,48.212L50.938,47.072L49.498,47.072C48.882,47.072 48.434,47.172 48.154,47.372C47.882,47.564 47.746,47.832 47.746,48.176L47.746,48.464C47.746,48.824 47.874,49.096 48.13,49.28C48.386,49.464 48.726,49.556 49.15,49.556ZM53.858,50L53.858,43.856L54.542,43.856L54.542,44.96L54.59,44.96C54.71,44.672 54.914,44.416 55.202,44.192C55.49,43.968 55.898,43.856 56.426,43.856L56.834,43.856L56.834,44.528L56.294,44.528C55.782,44.528 55.362,44.64 55.034,44.864C54.706,45.088 54.542,45.4 54.542,45.8L54.542,50L53.858,50ZM62.072,49.016L62.036,49.016C61.876,49.36 61.64,49.636 61.328,49.844C61.024,50.044 60.636,50.144 60.164,50.144C59.372,50.144 58.752,49.864 58.304,49.304C57.856,48.744 57.632,47.952 57.632,46.928C57.632,45.904 57.856,45.112 58.304,44.552C58.752,43.992 59.372,43.712 60.164,43.712C60.636,43.712 61.028,43.816 61.34,44.024C61.652,44.224 61.884,44.496 62.036,44.84L62.072,44.84L62.072,41.12L62.756,41.12L62.756,50L62.072,50L62.072,49.016ZM60.32,49.532C60.56,49.532 60.784,49.5 60.992,49.436C61.208,49.372 61.396,49.28 61.556,49.16C61.716,49.032 61.84,48.884 61.928,48.716C62.024,48.54 62.072,48.344 62.072,48.128L62.072,45.692C62.072,45.492 62.024,45.308 61.928,45.14C61.84,44.972 61.716,44.828 61.556,44.708C61.396,44.588 61.208,44.496 60.992,44.432C60.784,44.36 60.56,44.324 60.32,44.324C59.704,44.324 59.224,44.52 58.88,44.912C58.536,45.304 58.364,45.832 58.364,46.496L58.364,47.36C58.364,48.024 58.536,48.552 58.88,48.944C59.224,49.336 59.704,49.532 60.32,49.532Z" style="fill:white;fill-rule:nonzero;stroke:white;stroke-width:1px;stroke-linecap:butt;stroke-miterlimit:2;"/>
            </g>
        </g>
    </g>
</svg>
