<?xml version="1.0" encoding="iso-8859-1"?>
<!-- Generator: Adobe Illustrator 19.0.0, SVG Export Plug-In . SVG Version: 6.00 Build 0)  -->
<svg version="1.1" id="Layer_1" xmlns="http://www.w3.org/2000/svg" xmlns:xlink="http://www.w3.org/1999/xlink" x="0px" y="0px"
	 viewBox="0 0 512.002 512.002" style="enable-background:new 0 0 512.002 512.002;" xml:space="preserve">
<path style="fill:#00ABE9;" d="M503.922,319.237H15.505c-22.376-94.786,13.161-139.431,13.161-139.431
	c55.606,22.786,95.875,14.874,122.013,1.606c25.222-12.794,37.283-30.568,37.283-30.568s52.966,87.435,175.097,94.668
	C483.96,252.68,503.922,319.237,503.922,319.237z"/>
<polygon style="fill:#4B494F;" points="15.504,319.24 15.504,361.155 128.826,361.155 128.826,319.24 221.521,361.155 
	503.918,361.155 503.918,319.24 "/>
<path style="fill:#F5F5F5;" d="M128.83,319.237H15.505c-22.376-94.786,13.161-139.431,13.161-139.431l8.052,52.545
	c2.781,15.887,16.577,27.485,32.702,27.485c16.405,0,31.258,6.65,42.004,17.396C122.18,287.979,128.83,302.832,128.83,319.237z"/>
<path style="fill:#0081D1;" d="M503.922,319.237h-58.204c-16.89-30.298-60.995-32.26-137.598-41.077
	c-93.137-10.725-157.441-96.748-157.441-96.748c25.222-12.794,37.283-30.568,37.283-30.568s52.966,87.435,175.097,94.668
	C483.96,252.68,503.922,319.237,503.922,319.237z"/>
<path style="fill:#3C3A41;" d="M511.989,318.98c-0.004-0.12-0.009-0.238-0.018-0.358c-0.015-0.197-0.039-0.391-0.068-0.584
	c-0.014-0.093-0.025-0.185-0.043-0.278c-0.049-0.263-0.11-0.522-0.183-0.776c-0.006-0.022-0.01-0.044-0.016-0.066
	c-0.001-0.005-0.007-0.019-0.008-0.026c-0.011-0.036-0.022-0.071-0.033-0.107c-0.577-1.833-6.571-19.573-27.481-37.811
	c-19.29-16.826-55.874-37.689-120.606-41.527c-60.652-3.596-103.213-28.013-128.236-47.865c-27.262-21.627-40.3-42.726-40.42-42.925
	c-1.426-2.355-3.954-3.822-6.706-3.893c-2.733-0.045-5.353,1.263-6.897,3.542c-0.112,0.167-11.579,16.793-35.543,28.548
	c-32.558,15.973-70.913,15.123-113.999-2.526c-0.029-0.012-0.059-0.016-0.089-0.028c-0.366-0.146-0.743-0.267-1.13-0.358
	c-0.049-0.012-0.097-0.018-0.144-0.029c-0.366-0.079-0.739-0.135-1.119-0.162c-0.033-0.002-0.067-0.008-0.1-0.01
	c-0.374-0.022-0.753-0.012-1.135,0.019c-0.088,0.008-0.175,0.017-0.263,0.027c-0.102,0.012-0.205,0.015-0.307,0.031
	c-0.676,0.103-1.313,0.296-1.915,0.55c-0.063,0.026-0.124,0.052-0.185,0.08c-0.352,0.16-0.692,0.34-1.014,0.544
	c-0.04,0.026-0.079,0.055-0.117,0.081c-0.316,0.209-0.617,0.438-0.898,0.688c-0.026,0.023-0.053,0.043-0.079,0.066
	c-0.293,0.266-0.56,0.557-0.811,0.863c-0.025,0.03-0.055,0.054-0.08,0.085c-1.547,1.942-37.482,48.538-14.925,145.376v41.006
	c0,4.464,3.618,8.084,8.084,8.084h113.324c4.466,0,8.084-3.619,8.084-8.084v-29.388l81.281,36.754
	c1.047,0.473,2.182,0.718,3.331,0.718h282.397c4.466,0,8.084-3.619,8.084-8.084V319.24
	C512.002,319.152,511.992,319.067,511.989,318.98z M472.578,290.354c8.929,7.611,14.714,15.079,18.321,20.802h-40.704
	c-18.523-27.346-57.608-31.711-120.469-38.698c-6.613-0.735-13.507-1.501-20.687-2.328c-9.101-1.048-17.926-2.871-26.443-5.284
	l21.547-21.547c17.362,5.237,36.824,9.007,58.431,10.288C421.972,257.108,455.181,275.525,472.578,290.354z M254.888,222.223
	l-21.221,21.221c-5.643-3.347-11.031-6.851-16.146-10.428l21.001-21.001C243.532,215.435,248.99,218.87,254.888,222.223z
	 M269.911,230.066c5.431,2.594,11.163,5.079,17.198,7.402l-21.621,21.621c-5.86-2.29-11.543-4.834-17.031-7.57L269.911,230.066z
	 M224.664,201.783c0.223,0.179,0.459,0.36,0.686,0.539l-20.938,20.938c-5.075-4.009-9.799-8.01-14.138-11.892l21.072-21.072
	C215.368,194.036,219.794,197.894,224.664,201.783z M187.395,164.098c3.037,3.986,7.197,9.067,12.51,14.774L178.5,200.277
	c-6.631-6.58-11.836-12.336-15.45-16.532C174.099,176.962,182.179,169.619,187.395,164.098z M21.231,217.114
	c1.03-4.02,2.155-7.658,3.301-10.924l4.196,27.385c0.009,0.056,0.017,0.112,0.027,0.167c3.459,19.805,20.562,34.18,40.667,34.18
	c25.547,0,46.787,18.765,50.676,43.235H21.971C12.682,267.662,16.348,236.167,21.231,217.114z M23.588,353.071v-25.748h97.155
	v25.748H23.588z M223.265,353.071l-56.941-25.748h90.766c4.466,0,8.084-3.619,8.084-8.084c0-4.464-3.618-8.084-8.084-8.084H136.409
	c-4.01-33.412-32.51-59.402-66.985-59.402c-12.206,0-22.593-8.707-24.727-20.716l-5.951-38.833
	c49.202,16.74,85.906,9.692,109.613-0.748c3.79,4.573,10.101,11.804,18.651,20.31l-9.285,9.285c-3.157,3.157-3.157,8.276,0,11.432
	c1.579,1.578,3.649,2.368,5.717,2.368c2.068,0,4.138-0.789,5.717-2.368l9.599-9.598c3.312,2.982,6.836,6.035,10.575,9.118
	c1.134,0.936,2.309,1.883,3.501,2.837l-8.448,8.448c-3.157,3.157-3.157,8.276,0,11.432c1.579,1.578,3.649,2.368,5.717,2.368
	c2.068,0,4.138-0.789,5.717-2.368l10.042-10.042c4.992,3.553,10.333,7.113,15.997,10.578l-5.567,5.567
	c-3.157,3.157-3.157,8.276,0,11.432c1.579,1.578,3.649,2.368,5.717,2.368c2.068,0,4.138-0.789,5.717-2.368l8.717-8.717
	c5.338,2.801,10.899,5.466,16.667,7.934l-2.814,2.814c-3.157,3.157-3.157,8.276,0,11.432c1.579,1.578,3.649,2.368,5.717,2.368
	c2.068,0,4.138-0.789,5.717-2.368l7.949-7.949c11.843,3.938,24.387,6.912,37.517,8.424c7.202,0.83,14.118,1.597,20.75,2.336
	c48.696,5.413,81.907,9.116,100.015,22.629H300.204c-4.466,0-8.084,3.619-8.084,8.084s3.618,8.084,8.084,8.084h145.493
	c0.008,0,0.016,0.001,0.024,0.001c0.009,0,0.017-0.001,0.025-0.001h50.088v25.748H223.265V353.071z"/>
<g>
</g>
<g>
</g>
<g>
</g>
<g>
</g>
<g>
</g>
<g>
</g>
<g>
</g>
<g>
</g>
<g>
</g>
<g>
</g>
<g>
</g>
<g>
</g>
<g>
</g>
<g>
</g>
<g>
</g>
</svg>
