<?xml version="1.0" encoding="UTF-8" standalone="no"?>
<!DOCTYPE svg PUBLIC "-//W3C//DTD SVG 1.1//EN" "http://www.w3.org/Graphics/SVG/1.1/DTD/svg11.dtd">
<svg width="100%" height="100%" viewBox="0 0 1080 1080" version="1.1" xmlns="http://www.w3.org/2000/svg" xmlns:xlink="http://www.w3.org/1999/xlink" xml:space="preserve" xmlns:serif="http://www.serif.com/" style="fill-rule:evenodd;clip-rule:evenodd;stroke-linecap:round;stroke-linejoin:round;">
    <rect id="Artboard1" x="0" y="0" width="1080" height="1080" style="fill:none;"/>
    <clipPath id="_clip1">
        <rect id="Artboard11" serif:id="Artboard1" x="0" y="0" width="1080" height="1080"/>
    </clipPath>
    <g clip-path="url(#_clip1)">
        <g id="drawkit-transport-scene-9.svg" transform="matrix(3.31143,0,0,3.31143,2289.96,1210.08)">
            <clipPath id="_clip2">
                <rect x="-691.53" y="-365.424" width="326.143" height="326.143"/>
            </clipPath>
            <g clip-path="url(#_clip2)">
                <g transform="matrix(1,0,0,1,-2020.53,-1166.99)">
                    <g id="Layer_2">
                        <g id="Слой_1">
                            <g id="DOOR">
                            </g>
                            <g id="WINDOW">
                                <path d="M1692.68,352.46C1692.68,295.188 1646.18,248.69 1588.91,248.69L168.56,248.69C111.288,248.69 64.79,295.188 64.79,352.46L64.79,982.69C64.79,1039.96 111.288,1086.46 168.56,1086.46L1588.91,1086.46C1646.18,1086.46 1692.68,1039.96 1692.68,982.69L1692.68,352.46Z" style="fill:rgb(206,228,237);"/>
                                <path d="M1172.35,890.41L1427.66,546.72" style="fill:none;fill-rule:nonzero;stroke:white;stroke-width:7px;"/>
                            </g>
                            <g id="SEAT">
                            </g>
                            <g id="POSTERS">
                            </g>
                            <g id="_4_CHARACTER">
                            </g>
                            <g id="HANDRAIL">
                            </g>
                            <g id="_3_CHARACTER">
                            </g>
                            <g id="_2_CHARACTER">
                                <path id="HAIR-3" d="M1587.77,963.3C1587.77,997.49 1565.7,1028.69 1503.16,1031.36C1422.1,1032.75 1400.89,1002.69 1400.89,967.57C1400.89,936.02 1423.3,909.82 1452.73,904.7L1452.73,879.08C1452.73,859.199 1469.09,842.84 1488.97,842.84C1488.98,842.84 1488.99,842.84 1489,842.84L1498.84,842.84C1518.69,842.884 1535,859.23 1535,879.08L1535,904.18C1564.92,907.586 1587.77,933.19 1587.77,963.3Z" style="fill:white;fill-rule:nonzero;"/>
                                <g id="LEGS-4">
                                </g>
                                <g id="CANE">
                                </g>
                                <g id="BLOUSE">
                                    <path d="M1690.7,1028.15C1731.22,1038.05 1762.59,1070.47 1771.15,1111.29L1656.59,1166.78L1659.66,1390.35L1315.07,1390.35L1322.07,1167.99L1207.24,1112.37C1215.8,1071.55 1247.17,1039.14 1287.68,1029.24L1451.97,990.24L1536.56,990.24L1690.7,1028.15Z" style="fill:rgb(245,187,187);fill-rule:nonzero;"/>
                                    <circle cx="1493.67" cy="1081.2" r="8.22" style="fill:none;stroke:white;stroke-width:5px;"/>
                                    <path d="M1412.32,1000.23L1434.28,1067.62L1476.23,1033.45" style="fill:none;fill-rule:nonzero;stroke:white;stroke-width:5px;"/>
                                    <path d="M1513.14,1033.45L1552.48,1067.62L1573.65,1000.49" style="fill:none;fill-rule:nonzero;stroke:white;stroke-width:5px;"/>
                                    <path d="M1655.14,1147.59L1766.15,1093.88" style="fill:none;fill-rule:nonzero;stroke:white;stroke-width:5px;"/>
                                </g>
                                <g id="HANDS">
                                    <g id="RIGHT_HAND">
                                        <path d="M1230.48,1444L1721.82,1443.88C1729.67,1443.87 1737.49,1442.87 1745.08,1440.88C1785.18,1434.13 1814.83,1399.06 1814.83,1358.4C1814.83,1353.64 1814.43,1348.9 1813.62,1344.21L1771.15,1111.21L1656.59,1166.7L1658.04,1268.48L1344,1315.06C1333.74,1317 1323.8,1320.39 1314.49,1325.12L1219.42,1414.12C1208.2,1421.54 1206.3,1444.05 1230.48,1444Z" style="fill:rgb(167,70,2);fill-rule:nonzero;"/>
                                    </g>
                                    <g id="LEFT_HAND">
                                        <path d="M1207.24,1112.37L1322.07,1168L1319.25,1271L1725.54,1327.63C1743.38,1330.12 1759,1340.98 1767.54,1356.84L1828.06,1501.5L1819.23,1501.5C1805.59,1501.5 1793.01,1493.95 1786.59,1481.91L1778.74,1467.17L1688.13,1477.01C1671.13,1479.07 1655.01,1467.53 1648.94,1451.58L1646.11,1444.13L1236.57,1444.13C1217.12,1444.17 1198.15,1438.01 1182.45,1426.53C1152.13,1404.41 1139.12,1365.53 1148.87,1329.26L1207.24,1112.37Z" style="fill:rgb(167,70,2);fill-rule:nonzero;"/>
                                    </g>
                                </g>
                                <g id="NECK-3">
                                    <path d="M1536.55,990.26L1526.3,940.92L1462.88,940.92L1452,990.26C1452,990.26 1444.1,1032.26 1494.29,1032.26C1544.48,1032.26 1536.55,990.26 1536.55,990.26Z" style="fill:rgb(167,70,2);fill-rule:nonzero;"/>
                                    <path d="M1526.75,943.1C1526.37,964.293 1510.43,982.227 1489.43,985.1L1452,990.26L1462.91,940.91L1526.33,940.91L1526.75,943.1Z" style="fill:rgb(89,34,29);fill-rule:nonzero;"/>
                                </g>
                                <g id="HEAD-6">
                                    <path d="M1551.54,922.54L1551.54,925.3C1551.54,925.317 1551.54,925.333 1551.54,925.35C1551.54,934.484 1544.02,942 1534.89,942L1527.34,942C1524.5,956.61 1511.23,967.66 1495.34,967.66L1493.43,967.66C1477.49,967.66 1464.22,956.61 1461.38,942L1454.27,942C1445.14,942 1437.62,934.484 1437.62,925.35L1437.62,922.59C1437.62,913.458 1445.14,905.945 1454.27,905.94C1456.66,905.938 1458.97,906.765 1460.82,908.28L1460.82,900.41C1460.82,892.95 1468.16,887.53 1475.6,889.53C1477.78,890.113 1480.03,890.405 1482.28,890.4C1493.98,890.4 1503.59,882.7 1504.7,872.83L1504.81,872.83C1517.59,872.83 1527.95,882.83 1527.95,895.19L1527.95,908.36C1529.94,906.786 1532.41,905.933 1534.95,905.94C1534.95,905.94 1534.96,905.94 1534.96,905.94C1544.09,905.94 1551.6,913.452 1551.6,922.58C1551.6,922.583 1551.6,922.587 1551.6,922.59L1551.54,922.54Z" style="fill:rgb(167,70,2);fill-rule:nonzero;"/>
                                    <g id="EARS">
                                        <path d="M1459.27,927C1459.27,921.041 1454.36,916.14 1448.4,916.14" style="fill:none;fill-rule:nonzero;stroke:rgb(89,34,29);stroke-width:5px;stroke-linejoin:miter;stroke-miterlimit:10;"/>
                                        <path d="M1528.37,927C1528.38,921.041 1533.28,916.14 1539.24,916.14" style="fill:none;fill-rule:nonzero;stroke:rgb(89,34,29);stroke-width:5px;stroke-linejoin:miter;stroke-miterlimit:10;"/>
                                    </g>
                                    <g id="FACE-3">
                                        <path d="M1505.24,898.74C1505.24,898.74 1514.57,895.48 1521.04,901.38" style="fill:none;fill-rule:nonzero;stroke:white;stroke-width:4px;"/>
                                        <ellipse cx="1510.07" cy="912.1" rx="3.08" ry="5.19" style="fill:rgb(89,34,29);"/>
                                        <ellipse cx="1477.26" cy="912.1" rx="3.08" ry="5.19" style="fill:rgb(89,34,29);"/>
                                        <path d="M1499.14,925.89C1495.95,927.324 1492.32,927.46 1489.03,926.27C1485.74,925.08 1491.09,905.89 1485.03,899.74" style="fill:none;fill-rule:nonzero;stroke:rgb(89,34,29);stroke-width:5px;stroke-linejoin:miter;stroke-miterlimit:10;"/>
                                        <path d="M1468.34,901.39C1474.8,895.48 1484.13,898.72 1484.13,898.72" style="fill:none;fill-rule:nonzero;stroke:white;stroke-width:4px;"/>
                                        <path d="M1486.12,939.83C1492.04,942.895 1499.26,942.049 1504.31,937.7" style="fill:none;fill-rule:nonzero;stroke:rgb(89,34,29);stroke-width:5px;stroke-linejoin:miter;stroke-miterlimit:10;"/>
                                        <path d="M1502.97,934.73L1506.99,941.91" style="fill:none;fill-rule:nonzero;stroke:rgb(89,34,29);stroke-width:5px;stroke-linejoin:miter;stroke-miterlimit:10;"/>
                                    </g>
                                </g>
                            </g>
                            <g id="_1_CHARACTER">
                            </g>
                        </g>
                    </g>
                </g>
            </g>
        </g>
    </g>
</svg>
