<?xml version="1.0" encoding="UTF-8" standalone="no"?>
<!DOCTYPE svg PUBLIC "-//W3C//DTD SVG 1.1//EN" "http://www.w3.org/Graphics/SVG/1.1/DTD/svg11.dtd">
<svg width="100%" height="100%" viewBox="0 0 400 400" version="1.1" xmlns="http://www.w3.org/2000/svg" xmlns:xlink="http://www.w3.org/1999/xlink" xml:space="preserve" xmlns:serif="http://www.serif.com/" style="fill-rule:evenodd;clip-rule:evenodd;stroke-linejoin:round;stroke-miterlimit:2;">
    <g transform="matrix(1.18217,0,0,1.18217,-36.4559,-36.8424)">
        <g id="svgg">
            <path id="path0" d="M200.727,61.7C183.652,85.058 182.549,113.219 197.801,136.401L200,139.744L200,177.722L204.5,177.457C236.575,175.566 261.637,150.177 263.744,117.442L263.947,114.284L259.474,114.528C242.118,115.477 225.677,124.063 214.221,138.162C211.339,141.708 206.4,149.622 206.4,150.694C206.4,150.972 206.22,151.2 206,151.2C205.752,151.2 205.6,148.994 205.6,145.383L205.6,139.566L207.124,137.483C223.07,115.683 222.376,86.012 205.367,62.389C202.619,58.571 202.975,58.624 200.727,61.7M136.186,116.041C136.289,117.008 136.475,119.15 136.598,120.8C138.222,142.472 153.809,163.711 174.613,172.596C180.33,175.038 189.869,177.6 193.244,177.6C193.97,177.6 194,177.074 194,164.278L194,150.957L191.434,146.46C180.858,127.924 161.3,115.663 140.5,114.527L135.999,114.281L136.186,116.041M136.232,169.1C136.301,169.925 136.457,172.016 136.578,173.747C138.546,201.94 162.754,226.831 191.9,230.629L194,230.903L193.994,217.552L193.989,204.2L192.357,201.2C181.62,181.458 159.702,167.6 139.213,167.6L136.105,167.6L136.232,169.1M252.752,168.413C234.353,171.655 217.759,183.421 208.454,199.822C207.338,201.79 206.249,203.67 206.036,204C205.779,204.397 205.639,201.047 205.624,194.1L205.6,183.6L200,183.6L200,231.303L203.3,231.039C237.151,228.333 261.633,203.729 263.738,170.3L263.908,167.6L260.454,167.632C258.554,167.65 255.088,168.001 252.752,168.413M136.357,221.041C135.907,224.817 137.415,234.604 139.386,240.703C146.697,263.318 168.637,281.61 191.1,283.818L194,284.103L194,257.927L192.11,254.264C182.531,235.7 161.922,222.476 140.19,220.948C138.028,220.796 136.382,220.836 136.357,221.041M257.8,221.067C236.01,223.744 217.324,236.199 207.79,254.4L205.8,258.2L205.6,247.6C205.416,237.831 205.345,237.003 204.7,237.033C204.315,237.052 203.1,237.097 202,237.133L200,237.2L200,341.237L202.7,341.118L205.4,341L205.8,329.8L234.919,329.697L264.038,329.595L263.919,327.097L263.8,324.6L234.696,324.497L205.593,324.395L205.696,304.311L205.8,284.226L209.536,283.726C235.421,280.259 257.335,259.462 262.565,233.4C263.235,230.064 264.033,221.621 263.728,221.1C263.554,220.803 260.109,220.784 257.8,221.067M136.267,324.667C136.12,324.813 136,325.983 136,327.267L136,329.6L194,329.6L194,324.4L165.267,324.4C149.463,324.4 136.413,324.52 136.267,324.667" style="fill:rgb(115,51,115);"/>
        </g>
    </g>
</svg>
