<?xml version="1.0" encoding="UTF-8" standalone="no"?>
<!DOCTYPE svg PUBLIC "-//W3C//DTD SVG 1.1//EN" "http://www.w3.org/Graphics/SVG/1.1/DTD/svg11.dtd">
<svg width="100%" height="100%" viewBox="0 0 1000 663" version="1.1" xmlns="http://www.w3.org/2000/svg" xmlns:xlink="http://www.w3.org/1999/xlink" xml:space="preserve" xmlns:serif="http://www.serif.com/" style="fill-rule:evenodd;clip-rule:evenodd;stroke-linejoin:round;stroke-miterlimit:2;">
    <g id="Artboard1" transform="matrix(1,0,0,0.662412,0,0)">
        <rect x="0" y="0" width="1000" height="1000" style="fill:none;"/>
        <clipPath id="_clip1">
            <rect x="0" y="0" width="1000" height="1000"/>
        </clipPath>
        <g clip-path="url(#_clip1)">
            <g transform="matrix(1,0,0,1.50964,31.5765,-195.058)">
                <path d="M422.71,798.62C447.65,797.82 470.17,797.34 489.71,797.05C509.25,796.76 525.82,796.68 538.83,796.66C613.24,796.57 669.05,796.49 706.89,796.48C744.73,796.47 764.6,796.48 767.13,796.66C784.73,797.66 795.72,798 804.23,797.56C811.78,797.193 819.258,795.914 826.5,793.75C859.28,784.64 876.93,759.04 886.61,728.69C896.29,698.34 898.01,663.24 898.92,635.15C899.14,628.25 899.48,617.69 899.47,605.35C899.46,593.01 899.07,578.9 897.86,564.9C895.57,538.54 892.72,505.75 883.94,473.47C875.16,441.19 860.44,409.47 834.43,385.18C816.14,368.13 796.23,358.47 771.23,352.06C746.23,345.65 716.11,342.48 677.43,338.41C643.361,334.733 608.976,335.126 575,339.58C556.093,342.045 537.42,346.059 519.17,351.58C510.7,354.17 502.81,356.58 494.92,359.53C486.559,362.622 478.451,366.36 470.67,370.71C439.78,388.01 418.11,412.53 402.95,436.71C387.79,460.89 379.16,484.62 374.33,500.42L365.83,535.79L357.34,571.17L321.64,527.3L286,483.47L232,531.58L178,579.68L182,584.8C183.27,586.4 184.44,587.9 185.52,589.27L187.21,591.44C188.21,592.71 189.51,594.38 190.72,595.94C194.72,601.08 215.72,632.13 240.33,666.03C264.94,699.93 292.96,736.68 311.05,753.24C312.35,754.43 314.1,755.98 316.31,757.68C318.856,759.641 321.528,761.431 324.31,763.04C327.755,764.989 331.35,766.661 335.06,768.04C343.002,771.196 351.454,772.877 360,773C375.369,772.832 390.236,767.458 402.16,757.76C414.737,747.541 423.692,733.535 427.69,717.83C426.863,731.29 426.037,744.753 425.21,758.22L422.71,798.62Z" style="fill:rgb(16,79,193);fill-rule:nonzero;stroke:black;stroke-width:2.98px;"/>
            </g>
            <g transform="matrix(1,0,0,1.50964,31.5765,-195.058)">
                <path d="M572.46,447.59L555.64,622.13L538.84,796.66L658.63,796.66L615.54,622.13L572.46,447.59Z" style="fill:rgb(255,248,248);fill-rule:nonzero;stroke:black;stroke-width:2.98px;"/>
            </g>
            <g transform="matrix(1,0,0,1.50964,31.5765,-195.058)">
                <path d="M551.32,408.31L561.88,427.95L572.46,447.59L586.64,403.31L551.32,408.31Z" style="fill:rgb(255,248,248);fill-rule:nonzero;stroke:black;stroke-width:2.98px;"/>
            </g>
            <g transform="matrix(1,0,0,1.50964,31.5765,-195.058)">
                <path d="M357.31,571.12L386.83,609.28C386.957,609.445 387.153,609.542 387.361,609.542C387.729,609.542 388.031,609.24 388.031,608.872C388.031,608.793 388.017,608.714 387.99,608.64C383.99,597.793 380.017,586.943 376.07,576.09C372.123,565.237 368.15,554.39 364.15,543.55L360.73,557.33L357.31,571.12Z" style="fill-rule:nonzero;stroke:black;stroke-width:2.98px;"/>
            </g>
            <g transform="matrix(1,0,0,1.50964,31.5765,-195.058)">
                <path d="M437.51,566.43C435.89,592.603 434.273,618.77 432.66,644.93C431.047,671.09 429.43,697.257 427.81,723.43" style="fill:none;fill-rule:nonzero;stroke:black;stroke-width:2.98px;"/>
            </g>
            <g transform="matrix(1,0,0,1.50964,31.5765,-195.058)">
                <path d="M519.14,351.57L505.43,355.93L500.74,357.43C500.74,357.43 499.39,376.75 497.43,404.87C495.47,432.99 492.88,469.92 490.43,505.15L572.43,447.59L545.78,399.59L519.14,351.57Z" style="fill:rgb(16,79,193);fill-rule:nonzero;stroke:black;stroke-width:2.98px;"/>
            </g>
            <g transform="matrix(1,0,0,1.50964,31.5765,-195.058)">
                <path d="M611.37,336.35L591.91,392C585.43,410.54 578.943,429.08 572.45,447.62L622.81,474L673.17,500.39C670.51,490.58 659.35,449.39 648.84,410.68L628.5,335.68L620.06,336.02L611.37,336.35Z" style="fill:rgb(16,79,193);fill-rule:nonzero;stroke:black;stroke-width:2.98px;"/>
            </g>
            <g transform="matrix(1,0,0,1.50964,31.5765,-195.058)">
                <path d="M628.36,278.8L571.9,293.2C574.291,300.674 577.653,307.802 581.9,314.4C591.038,328.678 604.586,339.596 620.48,345.49C624.964,347.152 629.585,348.417 634.29,349.27C636.145,343.077 637.364,336.71 637.93,330.27C638.993,317.993 637.741,305.625 634.24,293.81C632.699,288.652 630.732,283.632 628.36,278.8Z" style="fill-rule:nonzero;stroke:black;stroke-width:2.98px;"/>
            </g>
            <g transform="matrix(1,0,0,1.50964,31.5765,-195.058)">
                <path d="M610.1,340.74C608.23,339.74 606.76,338.74 605.62,338C604.48,337.26 603.62,336.6 603.1,336.15L601.97,335.21L601.11,334.45L601.88,334.5L603.55,334.5C604.02,334.5 604.64,334.45 605.26,334.37C615.984,333.251 624.224,324.106 624.224,313.324C624.224,301.716 614.672,292.164 603.064,292.164C597.148,292.164 591.495,294.645 587.49,299C584.037,302.719 581.967,307.516 581.63,312.58C580.63,311.3 579.63,309.84 578.63,308.2C577.513,306.422 576.491,304.586 575.57,302.7C574.73,300.97 574.02,299.29 573.42,297.7C572.82,296.11 572.34,294.61 571.94,293.23L523.76,305.51L475.59,317.79C475.59,319.7 475.64,321.62 475.75,323.55C475.86,325.48 476.02,327.42 476.25,329.37C479.15,353.84 490.81,374.92 507.32,389.22C523.83,403.52 545.17,411.06 567.46,408.42C583.117,406.542 597.804,399.821 609.46,389.2C621.251,378.423 629.874,364.623 634.39,349.3C631.439,348.75 628.519,348.049 625.64,347.2C623.06,346.43 620.84,345.64 619,344.91C618,344.51 616.67,343.97 615.18,343.29C613.69,342.61 611.91,341.73 610.1,340.74Z" style="fill:rgb(255,192,192);fill-rule:nonzero;stroke:black;stroke-width:2.98px;"/>
            </g>
            <g transform="matrix(1,0,0,1.50964,31.5765,-195.058)">
                <path d="M591.39,339.56C591.442,340.001 591.468,340.445 591.468,340.89C591.468,347.105 586.354,352.22 580.138,352.22C573.923,352.22 568.808,347.105 568.808,340.89C568.808,334.674 573.923,329.56 580.138,329.56C582.682,329.56 585.152,330.416 587.15,331.99C589.516,333.846 591.044,336.573 591.39,339.56Z" style="fill:rgb(239,63,63);fill-rule:nonzero;stroke:black;stroke-width:2.98px;"/>
            </g>
            <g transform="matrix(1,0,0,1.50964,31.5765,-195.058)">
                <path d="M533.56,383.26C533.612,383.701 533.638,384.145 533.638,384.59C533.638,390.805 528.524,395.92 522.308,395.92C516.093,395.92 510.978,390.805 510.978,384.59C510.978,378.374 516.093,373.26 522.308,373.26C524.852,373.26 527.322,374.116 529.32,375.69C531.683,377.549 533.209,380.274 533.56,383.26Z" style="fill:rgb(239,63,63);fill-rule:nonzero;stroke:black;stroke-width:2.98px;"/>
            </g>
            <g transform="matrix(1,0,0,1.50964,31.5765,-195.058)">
                <path d="M514.72,357.27C514.756,357.503 514.774,357.738 514.774,357.973C514.774,360.48 512.711,362.543 510.204,362.543C507.839,362.543 505.845,360.707 505.65,358.35C505.614,358.117 505.596,357.882 505.596,357.647C505.596,355.14 507.659,353.077 510.166,353.077C512.531,353.077 514.525,354.913 514.72,357.27Z" style="fill:rgb(35,31,32);fill-rule:nonzero;stroke:black;stroke-width:2.98px;"/>
            </g>
            <g transform="matrix(1,0,0,1.50964,31.5765,-195.058)">
                <path d="M556.15,333.39C556.171,333.568 556.182,333.748 556.182,333.928C556.182,336.435 554.119,338.498 551.612,338.498C549.105,338.498 547.042,336.435 547.042,333.928C547.042,331.625 548.783,329.663 551.07,329.39C551.25,329.369 551.431,329.358 551.612,329.358C553.916,329.358 555.879,331.101 556.15,333.39Z" style="fill:rgb(35,31,32);fill-rule:nonzero;stroke:black;stroke-width:2.98px;"/>
            </g>
            <g transform="matrix(1,0,0,1.50964,31.5765,-195.058)">
                <path d="M503,333C506.239,330.092 509.681,327.418 513.3,325C524.536,317.464 537.327,312.556 550.72,310.64" style="fill:none;fill-rule:nonzero;stroke:black;stroke-width:2.98px;"/>
            </g>
            <g transform="matrix(1,0,0,1.50964,31.5765,-195.058)">
                <path d="M514.3,325.96L524.07,345.3L533.85,364.63L536.46,363.03L539.07,361.44" style="fill:none;fill-rule:nonzero;stroke:black;stroke-width:2.98px;"/>
            </g>
            <g transform="matrix(1,0,0,1.50964,31.5765,-195.058)">
                <path d="M546.41,231.14C525.9,233.58 508.18,244.2 495.59,259.73C482.486,276.202 475.424,296.682 475.59,317.73L552,298.27L628.41,278.8C620.92,263.36 609.107,250.421 594.41,241.56C580.007,232.871 563.119,229.205 546.41,231.14Z" style="fill:rgb(249,133,28);fill-rule:nonzero;stroke:black;stroke-width:2.98px;"/>
            </g>
            <g transform="matrix(1,0,0,1.50964,31.5765,-195.058)">
                <path d="M597.01,321.12L602.94,314.87L608.88,308.61" style="fill:none;fill-rule:nonzero;stroke:black;stroke-width:2.98px;"/>
            </g>
            <g transform="matrix(1,0,0,1.50964,31.5765,-195.058)">
                <path d="M504.56,310.35C507.049,318.381 507.07,326.977 504.62,335.02C502.312,342.681 497.554,349.378 491.08,354.08C488.65,355.822 486,357.234 483.2,358.28C474.249,361.583 464.356,361.286 455.62,357.45C446.604,353.475 439.843,345.641 437.23,336.14C436.441,333.258 436.074,330.277 436.14,327.29C436.369,320.77 438.397,314.439 442,309C445.67,303.5 451,299.21 457.61,297.85C461.609,297.081 465.738,297.339 469.61,298.6C472.153,299.408 474.583,300.537 476.84,301.96C476.58,303.49 476.34,305.11 476.14,306.8C475.94,308.49 475.79,310.26 475.68,312.1C475.63,313.1 475.59,314.1 475.57,315.02C475.55,315.94 475.57,316.9 475.57,317.8L490.08,314.1L504.56,310.35Z" style="fill-rule:nonzero;stroke:black;stroke-width:2.98px;"/>
            </g>
            <g transform="matrix(1,0,0,1.50964,31.5765,-195.058)">
                <path d="M479.76,289.53L547.18,273.91L614.61,258.29" style="fill:none;fill-rule:nonzero;stroke:black;stroke-width:2.98px;"/>
            </g>
            <g transform="matrix(1,0,0,1.50964,31.5765,-195.058)">
                <path d="M500.15,284.81L501.69,297.75L503.22,310.69" style="fill:none;fill-rule:nonzero;stroke:black;stroke-width:2.98px;"/>
            </g>
            <g transform="matrix(1,0,0,1.50964,31.5765,-195.058)">
                <path d="M526.82,278.82L528.27,291.06L529.72,303.29" style="fill:none;fill-rule:nonzero;stroke:black;stroke-width:2.98px;"/>
            </g>
            <g transform="matrix(1,0,0,1.50964,31.5765,-195.058)">
                <path d="M559.39,271.61L560.81,283.63L562.24,295.65" style="fill:none;fill-rule:nonzero;stroke:black;stroke-width:2.98px;"/>
            </g>
            <g transform="matrix(1,0,0,1.50964,31.5765,-195.058)">
                <path d="M592.53,263.9L593.87,275.27L595.22,286.64" style="fill:none;fill-rule:nonzero;stroke:black;stroke-width:2.98px;"/>
            </g>
            <g transform="matrix(1,0,0,1.50964,31.5765,-195.058)">
                <path d="M569.57,356.73C569.027,355.992 568.192,355.522 567.28,355.44C566.374,355.347 565.471,355.654 564.81,356.28L559.38,361.36C557.58,363.06 555.773,364.753 553.96,366.44C552.978,370.36 552.724,374.428 553.21,378.44C553.544,381.524 554.214,384.562 555.21,387.5C557.839,387.519 560.446,387.016 562.88,386.02C565.278,385.042 567.423,383.53 569.15,381.6C572.007,378.28 573.592,374.05 573.62,369.67C573.712,365.032 572.29,360.488 569.57,356.73Z" style="fill:rgb(239,63,63);fill-rule:nonzero;stroke:black;stroke-width:2.98px;"/>
            </g>
            <g transform="matrix(1,0,0,1.50964,31.5765,-195.058)">
                <path d="M541.84,377.81C541.174,378.443 540.81,379.332 540.84,380.25C540.852,381.172 541.265,382.045 541.97,382.64C545.696,385.777 550.409,387.505 555.28,387.52C554.284,384.582 553.614,381.544 553.28,378.46C552.794,374.448 553.048,370.38 554.03,366.46L547.97,372.15L541.84,377.81Z" style="fill-rule:nonzero;stroke:black;stroke-width:2.98px;"/>
            </g>
            <g transform="matrix(1,0,0,1.50964,31.5765,-195.058)">
                <path d="M531.54,585.55C531.511,588.52 529.06,590.947 526.09,590.947C523.1,590.947 520.64,588.487 520.64,585.497C520.64,582.507 523.1,580.047 526.09,580.047C527.563,580.047 528.974,580.644 530,581.7C531.003,582.728 531.557,584.114 531.54,585.55Z" style="fill-rule:nonzero;stroke:black;stroke-width:2.98px;"/>
            </g>
            <g transform="matrix(1,0,0,1.50964,31.5765,-195.058)">
                <path d="M522.52,690.07C522.52,690.072 522.52,690.075 522.52,690.077C522.52,693.067 520.06,695.527 517.07,695.527C514.08,695.527 511.62,693.067 511.62,690.077C511.62,688.631 512.196,687.242 513.22,686.22C514.241,685.201 515.627,684.627 517.07,684.627C520.057,684.627 522.516,687.083 522.52,690.07Z" style="fill-rule:nonzero;stroke:black;stroke-width:2.98px;"/>
            </g>
            <g transform="matrix(1,0,0,1.50964,31.5765,-195.058)">
                <path d="M767.13,796.66C731.66,793.37 698.49,729.66 674.13,666.66C649.77,603.66 634.43,541.6 634.43,541.6L700.78,509.88L767.13,478.17L796.13,547.55L825.13,616.92" style="fill:none;fill-rule:nonzero;stroke:black;stroke-width:2.98px;"/>
            </g>
            <g transform="matrix(1,0,0,1.50964,31.5765,-195.058)">
                <path d="M675.54,438.11L643,434.43L610.42,430.75C605.579,430.204 601.879,426.062 601.879,421.191C601.879,420.83 601.899,420.469 601.94,420.11L617.44,282.85C618.037,277.607 622.835,273.779 628.08,274.36L660.63,278L693.2,281.68C698.041,282.226 701.741,286.368 701.741,291.239C701.741,291.6 701.721,291.961 701.68,292.32L693.93,361L686.18,429.64C685.634,434.481 681.492,438.181 676.621,438.181C676.26,438.181 675.899,438.161 675.54,438.12L675.54,438.11Z" style="fill:rgb(209,183,229);fill-rule:nonzero;stroke:black;stroke-width:2.98px;"/>
            </g>
            <g transform="matrix(1,0,0,1.50964,31.5765,-195.058)">
                <path d="M686.58,307.54C686.58,307.55 686.58,307.561 686.58,307.571C686.58,311.241 683.56,314.261 679.89,314.261C676.22,314.261 673.2,311.241 673.2,307.571C673.2,303.901 676.22,300.881 679.89,300.881C681.644,300.881 683.329,301.57 684.58,302.8C685.851,304.05 686.572,305.757 686.58,307.54Z" style="fill-rule:nonzero;stroke:black;stroke-width:2.98px;"/>
            </g>
            <g transform="matrix(1,0,0,1.50964,31.5765,-195.058)">
                <path d="M684.13,331.71C684.13,331.723 684.13,331.736 684.13,331.749C684.13,335.43 681.101,338.459 677.42,338.459C673.739,338.459 670.71,335.43 670.71,331.749C670.71,328.068 673.739,325.039 677.42,325.039C679.182,325.039 680.875,325.733 682.13,326.97C683.399,328.221 684.12,329.928 684.13,331.71Z" style="fill-rule:nonzero;stroke:black;stroke-width:2.98px;"/>
            </g>
            <g transform="matrix(1,0,0,1.50964,31.5765,-195.058)">
                <path d="M702.4,306.67C703.032,305.942 703.774,305.317 704.6,304.82C705.409,304.337 706.307,304.021 707.24,303.89C707.722,303.84 708.208,303.84 708.69,303.89C709.857,304.009 710.99,304.348 712.03,304.89C717.03,307.49 719.64,316.32 720.97,324.51C721.789,329.709 722.256,334.958 722.37,340.22C722.482,352.36 723.485,364.476 725.37,376.47C727.15,388.15 729.62,400 732.48,413.73C732.48,413.73 732.91,415.73 735.93,425.54C738.95,435.35 744.6,452.88 755,484C749.96,486.4 744.91,488.81 739.85,491.23L724.67,498.5C712.423,504.393 700.22,510.29 688.06,516.19C675.9,522.09 663.797,528.003 651.75,533.93C636.07,514.93 622.75,497.93 612.37,484.21C601.99,470.49 594.48,459.9 590.43,453.65C588.626,450.734 587.044,447.685 585.7,444.53C583.42,439.18 581.29,432.28 581.93,426.03C582.073,424.616 582.31,423.213 582.64,421.83C582.93,420.61 583.25,419.6 583.51,418.83C581.807,417.116 580.35,415.174 579.18,413.06C576.979,409.211 575.98,404.791 576.31,400.37C576.515,397.88 577.148,395.445 578.18,393.17C578.881,391.628 579.746,390.167 580.76,388.81C579.942,387.535 579.305,386.151 578.87,384.7C576.99,378.751 578.985,372.222 583.87,368.34C585.154,367.265 586.593,366.392 588.14,365.75C587.167,363.217 586.942,360.457 587.49,357.8C587.987,355.291 589.273,353.006 591.16,351.28C593.426,349.306 596.344,348.237 599.35,348.28C602.562,348.292 605.677,349.396 608.18,351.41C608.571,351.72 608.941,352.054 609.29,352.41C609.65,352.77 609.98,353.15 610.29,353.54C613.265,357.074 616.497,360.383 619.96,363.44C624.27,367.242 628.931,370.627 633.88,373.55C644.301,379.65 655.82,383.643 667.78,385.3C675.518,386.396 683.358,386.587 691.14,385.87C693.14,369.94 694.08,361.6 694.6,357.24C695.12,352.88 695.13,352.51 695.13,352.51C695.48,347.13 695.94,342.11 696.62,336.08C697.3,330.05 698.17,323.08 699.35,313.69C699.503,312.392 699.84,311.123 700.35,309.92C700.859,308.736 701.551,307.64 702.4,306.67Z" style="fill:rgb(255,192,192);fill-rule:nonzero;stroke:black;stroke-width:2.98px;"/>
            </g>
            <g transform="matrix(1,0,0,1.50964,31.5765,-195.058)">
                <path d="M588.11,365.71C592.635,372.129 597.611,378.217 603,383.93C612.07,393.58 624.41,404.33 637.45,408.68" style="fill:none;fill-rule:nonzero;stroke:black;stroke-width:2.98px;"/>
            </g>
            <g transform="matrix(1,0,0,1.50964,31.5765,-195.058)">
                <path d="M580.77,388.77C585.359,394.884 590.29,400.733 595.54,406.29C604.25,415.51 615.6,425.66 626.17,429.36" style="fill:none;fill-rule:nonzero;stroke:black;stroke-width:2.98px;"/>
            </g>
            <g transform="matrix(1,0,0,1.50964,31.5765,-195.058)">
                <path d="M583.52,418.79C583.52,418.79 588.59,424.6 595.52,431.3C602.45,438 611.11,445.57 618.37,449.1" style="fill:none;fill-rule:nonzero;stroke:black;stroke-width:2.98px;"/>
            </g>
            <g transform="matrix(1,0,0,1.50964,31.5765,-195.058)">
                <path d="M400.22,201.38L258.84,201.38C249.771,201.391 242.311,208.851 242.3,217.92L242.3,296.67C242.3,305.744 249.766,313.21 258.84,313.21L323.2,313.21L342.4,332.4L361.59,351.58L358.2,332.4L354.81,313.21L400.22,313.21C409.294,313.21 416.76,305.744 416.76,296.67L416.76,217.92C416.749,208.851 409.289,201.391 400.22,201.38Z" style="fill:rgb(20,175,108);fill-rule:nonzero;stroke:black;stroke-width:2.98px;"/>
            </g>
            <g transform="matrix(1,0,0,1.50964,31.5765,-195.058)">
                <path d="M299.31,260.65C299.31,260.653 299.31,260.657 299.31,260.66C299.31,266.382 294.602,271.09 288.88,271.09C283.158,271.09 278.45,266.382 278.45,260.66C278.45,254.939 283.158,250.23 288.88,250.23C291.643,250.23 294.295,251.328 296.25,253.28C298.209,255.231 299.311,257.885 299.31,260.65Z" style="fill:rgb(247,206,33);fill-rule:nonzero;stroke:black;stroke-width:2.98px;"/>
            </g>
            <g transform="matrix(1,0,0,1.50964,31.5765,-195.058)">
                <path d="M380.59,260.65C380.558,266.339 375.869,271.002 370.18,271.002C364.469,271.002 359.77,266.303 359.77,260.592C359.77,254.881 364.469,250.182 370.18,250.182C372.964,250.182 375.635,251.298 377.59,253.28C379.528,255.24 380.608,257.894 380.59,260.65Z" style="fill:rgb(247,206,33);fill-rule:nonzero;stroke:black;stroke-width:2.98px;"/>
            </g>
            <g transform="matrix(1,0,0,1.50964,31.5765,-195.058)">
                <path d="M340,260.65C339.996,266.358 335.298,271.052 329.59,271.052C323.879,271.052 319.18,266.353 319.18,260.642C319.18,254.931 323.879,250.232 329.59,250.232C332.349,250.232 334.999,251.329 336.95,253.28C338.902,255.235 340,257.887 340,260.65Z" style="fill:rgb(247,206,33);fill-rule:nonzero;stroke:black;stroke-width:2.98px;"/>
            </g>
            <g transform="matrix(1,0,0,1.50964,31.5765,-195.058)">
                <path d="M184.5,438.46C180.825,434.841 177.528,430.857 174.66,426.57C172.12,422.84 170.19,419.47 168.48,416.88C163.134,408.809 158.214,400.465 153.74,391.88C149.259,383.303 145.386,374.421 142.15,365.3C141.36,362.885 140.307,360.565 139.01,358.38C137.307,355.329 134.62,352.942 131.39,351.61C130.586,351.311 129.751,351.103 128.9,350.99C127.512,350.801 126.098,350.934 124.77,351.38C122.707,352.123 120.947,353.53 119.77,355.38C118.42,357.486 117.6,359.888 117.38,362.38C116.023,362.633 114.709,363.081 113.48,363.71C112.634,364.141 111.841,364.672 111.12,365.29C108.633,367.531 107.003,370.569 106.51,373.88C105.896,377.711 106.239,381.634 107.51,385.3C106.946,385.592 106.404,385.927 105.89,386.3C105.418,386.652 104.973,387.04 104.56,387.46C99.65,392.38 99.94,400.86 101.56,408.37C102.749,413.56 104.461,418.616 106.67,423.46L108.31,427.02C108.85,428.2 109.4,429.39 109.94,430.58C109.459,430.839 108.998,431.134 108.56,431.46C107.996,431.886 107.473,432.365 107,432.89C105.23,434.89 103.36,438.45 104.3,446.03C105.24,453.61 109,465.19 118.46,483.18C125.289,496.057 132.907,508.501 141.27,520.44C154.421,539.205 168.785,557.09 184.27,573.98L235.08,528.71L286,483.47C269.14,449.09 254.66,419.54 244.12,398.02C233.58,376.5 227,363 225.91,360.68C225.763,360.365 225.6,360.058 225.42,359.76C224.041,357.408 222.041,355.481 219.64,354.19C218.026,353.351 216.2,353.003 214.39,353.19C213.804,353.256 213.227,353.387 212.67,353.58C211.589,353.923 210.586,354.477 209.72,355.21C206.72,357.76 206.05,361.32 206.34,365C206.794,368.615 207.663,372.165 208.93,375.58C212.849,387.338 215.888,399.371 218.02,411.58C220.49,427 220.51,442.38 212.44,447.38C211.051,448.2 209.496,448.699 207.89,448.84C206.316,448.975 204.734,448.975 203.16,448.84C200.321,448.646 197.556,447.848 195.05,446.5C191.156,444.356 187.6,441.646 184.5,438.46Z" style="fill:rgb(255,192,192);fill-rule:nonzero;stroke:black;stroke-width:2.98px;"/>
            </g>
            <g transform="matrix(1,0,0,1.50964,31.5765,-195.058)">
                <path d="M110,430.62C110,430.62 113.69,440.69 119,452.2C124.31,463.71 131.08,476.65 137.35,482.4" style="fill:none;fill-rule:nonzero;stroke:black;stroke-width:2.98px;"/>
            </g>
            <g transform="matrix(1,0,0,1.50964,31.5765,-195.058)">
                <path d="M107.54,385.33C107.54,385.33 115.49,405.12 124.91,425.5C134.33,445.88 145.2,466.81 151,469.1" style="fill:none;fill-rule:nonzero;stroke:black;stroke-width:2.98px;"/>
            </g>
            <g transform="matrix(1,0,0,1.50964,31.5765,-195.058)">
                <path d="M117.39,362.41C117.39,362.41 124.97,383.34 134.77,405.41C144.57,427.48 156.6,450.71 165.49,455.3" style="fill:none;fill-rule:nonzero;stroke:black;stroke-width:2.98px;"/>
            </g>
            <g transform="matrix(1,0,0,1.50964,31.5765,-195.058)">
                <path d="M658.7,623.52L658.7,796.66L761.37,796.66C758.49,796.66 755.53,795.1 752.76,793.13C749.99,791.16 747.41,788.76 745.3,787.13C733.19,777.5 723.22,765.28 714.63,752.05C706.04,738.82 698.83,724.56 692.26,710.87C688.12,702.25 684.78,694.57 681.67,686.87C678.56,679.17 675.67,671.47 672.45,662.81C670.55,657.72 668.45,651.81 666.09,645.28C663.73,638.75 661.29,631.41 658.7,623.52Z" style="fill-rule:nonzero;stroke:black;stroke-width:2.98px;"/>
            </g>
        </g>
    </g>
</svg>
