<?xml version="1.0" encoding="UTF-8" standalone="no"?>
<!DOCTYPE svg PUBLIC "-//W3C//DTD SVG 1.1//EN" "http://www.w3.org/Graphics/SVG/1.1/DTD/svg11.dtd">
<svg width="100%" height="100%" viewBox="0 0 818 528" version="1.1" xmlns="http://www.w3.org/2000/svg" xmlns:xlink="http://www.w3.org/1999/xlink" xml:space="preserve" xmlns:serif="http://www.serif.com/" style="fill-rule:evenodd;clip-rule:evenodd;stroke-linejoin:round;stroke-miterlimit:2;">
    <g id="Artboard1" transform="matrix(0.817762,0,0,0.527933,0,0)">
        <rect x="0" y="0" width="1000" height="1000" style="fill:none;"/>
        <clipPath id="_clip1">
            <rect x="0" y="0" width="1000" height="1000"/>
        </clipPath>
        <g clip-path="url(#_clip1)">
            <g transform="matrix(1.22285,0,0,1.89418,-111.448,-365.531)">
                <path d="M690.69,729.88L745.23,730.52L799.76,731.15C806.916,731.244 814.055,730.417 821,728.69C827.934,726.948 834.594,724.256 840.79,720.69C845.561,717.964 850.011,714.714 854.06,711C858.644,706.777 862.639,701.957 865.94,696.67C873.571,684.353 877.399,670.052 876.94,655.57C876.484,640.679 871.895,626.204 863.69,613.77C844.163,584.377 824.637,554.99 805.11,525.61L746.5,437.46C738.848,425.904 730.01,415.179 720.13,405.46C710.258,395.747 699.338,387.161 687.57,379.86C683.77,377.51 679.77,375.21 675.57,373.02C671.37,370.83 667,368.72 662.43,366.75C641.379,357.76 618.87,352.664 596,351.71C575,350.71 555.21,352.56 536.65,354.34C508.86,357.01 497.46,359.42 483.33,363.69C469.2,367.96 452.33,374.06 413.65,384.13C382.71,392.13 361.65,398.05 346.5,402.88C331.35,407.71 321.9,411.52 314.19,415.4C312.89,416.05 311.6,416.73 310.19,417.5C308.78,418.27 307.25,419.14 305.49,420.16C291.304,428.412 278.431,438.74 267.3,450.8C255.87,463 244.87,477.62 231.74,496C222.23,509.34 218.74,514.72 214.24,521.52C209.74,528.32 204.38,536.52 191.16,555.59C181.02,570.17 172.79,581.66 165.16,593.06C157.53,604.46 150.41,615.78 142.6,630C135.38,643.1 130.16,653.94 126.95,664C123.775,673.515 122.524,683.567 123.27,693.57C123.491,697.096 123.922,700.605 124.56,704.08C125.412,708.543 126.817,712.883 128.74,717C135.42,731.3 147.66,741.65 161.68,748.25C175.292,754.618 190.233,757.635 205.25,757.05C211.774,756.718 218.234,755.6 224.49,753.72C229.754,752.08 234.931,750.171 240,748C248.262,744.634 256.182,740.481 263.65,735.6C269.329,731.879 274.739,727.762 279.84,723.28L303.2,702.58L303.53,716.92L303.85,731.26L497.25,730.57L690.69,729.88Z" style="fill:rgb(16,79,193);fill-rule:nonzero;stroke:black;stroke-width:2.47px;"/>
            </g>
            <g transform="matrix(1.22285,0,0,1.89418,-111.448,-365.531)">
                <path d="M655.55,534.44L697.55,600.44L664.55,600.44C663.043,589.46 661.53,578.48 660.01,567.5L655.48,534.56L655.48,534.49C655.484,534.461 655.51,534.439 655.539,534.439C655.543,534.439 655.546,534.439 655.55,534.44Z" style="fill-rule:nonzero;stroke:black;stroke-width:2.47px;"/>
            </g>
            <g transform="matrix(1.22285,0,0,1.89418,-111.448,-365.531)">
                <path d="M664.51,600.36L737.41,600.36" style="fill:none;fill-rule:nonzero;stroke:black;stroke-width:2.47px;"/>
            </g>
            <g transform="matrix(1.22285,0,0,1.89418,-111.448,-365.531)">
                <path d="M451.85,427.32L468.42,448.5L484.98,469.69L489.78,443.46L494.57,417.24L451.85,427.32Z" style="fill:rgb(255,248,248);fill-rule:nonzero;stroke:black;stroke-width:2.47px;"/>
            </g>
            <g transform="matrix(1.22285,0,0,1.89418,-111.448,-365.531)">
                <path d="M385.29,391.63L418.73,560.69L451.86,515.19L484.98,469.69L416.84,382.51L401.06,387.07L385.29,391.63Z" style="fill:rgb(16,79,193);fill-rule:nonzero;stroke:black;stroke-width:2.47px;"/>
            </g>
            <g transform="matrix(1.22285,0,0,1.89418,-111.448,-365.531)">
                <path d="M504.36,361.74L484.98,469.74L542.98,498.19L600.98,526.65L568.81,440.52L536.6,354.34L520.48,358L504.36,361.74Z" style="fill:rgb(16,79,193);fill-rule:nonzero;stroke:black;stroke-width:2.47px;"/>
            </g>
            <g transform="matrix(1.22285,0,0,1.89418,-111.448,-365.531)">
                <path d="M485,471.69L485,731.26L572.68,731.26L528.93,601.46L485.19,471.66C485.173,471.615 485.128,471.587 485.08,471.59C485.033,471.6 484.999,471.642 485,471.69Z" style="fill:rgb(255,248,248);fill-rule:nonzero;stroke:black;stroke-width:2.47px;"/>
            </g>
            <g transform="matrix(1.22285,0,0,1.89418,-111.448,-365.531)">
                <path d="M578.78,518.7C578.78,518.697 578.78,518.693 578.78,518.69C578.78,510.291 571.869,503.38 563.47,503.38C563.467,503.38 563.463,503.38 563.46,503.38L319.79,503.38C319.787,503.38 319.783,503.38 319.78,503.38C311.381,503.38 304.47,510.291 304.47,518.69C304.47,518.693 304.47,518.697 304.47,518.7L304.47,538.08L578.78,538.08L578.78,518.7Z" style="fill:rgb(20,175,108);fill-rule:nonzero;stroke:black;stroke-width:2.47px;"/>
            </g>
            <g transform="matrix(1.22285,0,0,1.89418,-111.448,-365.531)">
                <path d="M304.47,538.07L304.47,696.08C304.454,700.422 306.072,704.615 309,707.82C311.771,710.886 315.707,712.651 319.84,712.68L563.46,712.68C567.593,712.651 571.529,710.886 574.3,707.82C577.213,704.604 578.812,700.408 578.78,696.07L578.78,538.07L304.47,538.07Z" style="fill:rgb(255,248,248);fill-rule:nonzero;stroke:black;stroke-width:2.47px;"/>
            </g>
            <g transform="matrix(1.22285,0,0,1.89418,-111.448,-365.531)">
                <path d="M697.56,600.36L676.48,567.29L655.4,534.21" style="fill:none;fill-rule:nonzero;stroke:black;stroke-width:2.47px;"/>
            </g>
            <g transform="matrix(1.22285,0,0,1.89418,-111.448,-365.531)">
                <path d="M189.11,558.75L294.17,617.59C294.17,617.59 298.58,610.59 305.17,600.59C311.76,590.59 320.53,577.59 329.23,565.71C333.55,559.8 338.15,554.11 342.97,548.62C347.79,543.13 352.85,537.83 358.07,532.7C360.32,530.48 362.91,527.49 364.07,524.48C365.23,521.47 365.01,518.48 361.6,516.21C359.862,515.064 357.841,514.42 355.76,514.35C353.688,514.279 351.629,514.711 349.76,515.61L308.28,535.61C307.531,535.974 306.747,536.263 305.94,536.47C305.136,536.673 304.31,536.777 303.48,536.78C302.711,536.791 301.945,536.7 301.2,536.51C300.387,536.297 299.62,535.934 298.94,535.44C297.074,533.96 295.93,531.748 295.8,529.37C295.575,526.496 296.357,523.631 298.01,521.27L307.47,504.27L316.94,487.27C318.755,484.027 322.612,482.469 326.17,483.54L351.63,491.21L377.09,498.89C377.09,498.89 378.85,499.48 381.49,500.07C384.679,500.811 387.936,501.223 391.21,501.3C395.947,501.433 400.127,498.09 401.04,493.44C402.174,488.828 399.819,484.021 395.48,482.09L395.3,482L395.11,481.92C391.11,480.12 387.18,478.3 383.25,476.41C379.32,474.52 375.44,472.56 371.6,470.49L351.29,459.55L331,448.65C329.31,447.73 327.62,446.79 325.95,445.84C324.28,444.89 322.61,443.92 320.95,442.95C316.8,440.461 312.216,438.781 307.44,438C301.92,437.23 295.88,438.16 290.86,443.24C289.695,442.138 288.399,441.184 287,440.4C284.159,438.694 280.833,437.97 277.54,438.34C275.094,438.716 272.79,439.73 270.86,441.28C269.33,442.487 267.95,443.874 266.75,445.41C262.89,450.19 253.45,463.49 239.99,483.12C226.53,502.75 209.05,528.69 189.11,558.75Z" style="fill:rgb(255,192,192);fill-rule:nonzero;stroke:black;stroke-width:2.47px;"/>
            </g>
            <g transform="matrix(1.22285,0,0,1.89418,-111.448,-365.531)">
                <path d="M290.86,443.24L268.1,475.16" style="fill:none;fill-rule:nonzero;stroke:black;stroke-width:2.47px;"/>
            </g>
            <g transform="matrix(1.22285,0,0,1.89418,-111.448,-365.531)">
                <path d="M294.17,617.59C288.09,627.937 282.007,638.27 275.92,648.59L257.68,679.7" style="fill:none;fill-rule:nonzero;stroke:black;stroke-width:2.47px;"/>
            </g>
            <g transform="matrix(1.22285,0,0,1.89418,-111.448,-365.531)">
                <path d="M357.76,588.75L343,614.27L328.29,639.8C327.712,640.8 327.407,641.935 327.407,643.09C327.407,646.694 330.373,649.66 333.977,649.66C333.981,649.66 333.986,649.66 333.99,649.66L392.93,649.66C392.934,649.66 392.939,649.66 392.943,649.66C396.547,649.66 399.513,646.694 399.513,643.09C399.513,641.935 399.208,640.8 398.63,639.8L383.89,614.27L369.16,588.75C367.986,586.715 365.809,585.457 363.46,585.457C361.111,585.457 358.934,586.715 357.76,588.75Z" style="fill:rgb(247,206,33);fill-rule:nonzero;stroke:black;stroke-width:2.47px;"/>
            </g>
            <g transform="matrix(1.22285,0,0,1.89418,-111.448,-365.531)">
                <path d="M363.35,631.54C362.602,631.541 361.882,631.246 361.35,630.72C360.82,630.19 360.525,629.469 360.53,628.72L360.53,600C360.53,599.997 360.53,599.993 360.53,599.99C360.53,598.454 361.794,597.19 363.33,597.19C363.333,597.19 363.337,597.19 363.34,597.19C364.879,597.195 366.145,598.461 366.15,600L366.15,628.72C366.145,630.259 364.879,631.525 363.34,631.53L363.35,631.54Z" style="fill-rule:nonzero;stroke:black;stroke-width:2.47px;"/>
            </g>
            <g transform="matrix(1.22285,0,0,1.89418,-111.448,-365.531)">
                <path d="M366.65,640.46C366.65,640.474 366.65,640.487 366.65,640.501C366.65,642.317 365.156,643.811 363.34,643.811C361.524,643.811 360.03,642.317 360.03,640.501C360.03,638.685 361.524,637.191 363.34,637.191C364.203,637.191 365.032,637.528 365.65,638.13C366.284,638.74 366.645,639.581 366.65,640.46Z" style="fill-rule:nonzero;stroke:black;stroke-width:2.47px;"/>
            </g>
            <g transform="matrix(1.22285,0,0,1.89418,-111.448,-365.531)">
                <path d="M413.84,634.08L413.84,625.15L426.73,607.8L439.62,590.44L451.15,590.44L451.15,624.77L458.15,624.77L458.15,634.08L451.15,634.08L451.15,644.91L440.31,644.91L440.31,634.08L413.84,634.08ZM441.15,603L433,613.9L424.83,624.77L441.16,624.77L441.16,603L441.15,603Z" style="fill-rule:nonzero;stroke:black;stroke-width:2.47px;"/>
            </g>
            <g transform="matrix(1.22285,0,0,1.89418,-111.448,-365.531)">
                <path d="M464.19,617.52C464.19,608.42 465.907,601.593 469.34,597.04C472.773,592.487 477.923,590.21 484.79,590.21C488.016,590.127 491.221,590.751 494.18,592.04C496.768,593.231 498.964,595.136 500.51,597.53C502.199,600.188 503.417,603.118 504.11,606.19C505.723,613.677 505.723,621.423 504.11,628.91C503.422,631.99 502.204,634.927 500.51,637.59C498.964,639.984 496.768,641.889 494.18,643.08C491.221,644.369 488.016,644.993 484.79,644.91C477.93,644.91 472.78,642.63 469.34,638.07C465.9,633.51 464.183,626.66 464.19,617.52ZM494.71,617.52C494.732,615.08 494.562,612.643 494.2,610.23C493.939,608.368 493.431,606.548 492.69,604.82C492.083,603.406 491.029,602.229 489.69,601.47C488.177,600.682 486.485,600.3 484.78,600.36C483.046,600.295 481.324,600.677 479.78,601.47C478.439,602.226 477.384,603.404 476.78,604.82C476.035,606.548 475.524,608.367 475.26,610.23C474.907,612.644 474.74,615.081 474.76,617.52C474.739,619.982 474.907,622.443 475.26,624.88C475.521,626.747 476.032,628.57 476.78,630.3C477.384,631.716 478.439,632.894 479.78,633.65C481.323,634.446 483.045,634.832 484.78,634.77C486.486,634.827 488.178,634.441 489.69,633.65C491.031,632.894 492.086,631.716 492.69,630.3C493.434,628.569 493.942,626.746 494.2,624.88C494.562,622.444 494.733,619.983 494.71,617.52Z" style="fill-rule:nonzero;stroke:black;stroke-width:2.47px;"/>
            </g>
            <g transform="matrix(1.22285,0,0,1.89418,-111.448,-365.531)">
                <path d="M511.8,634.08L511.8,625.15L524.69,607.8L537.59,590.44L549.11,590.44L549.11,624.77L556.11,624.77L556.11,634.08L549.11,634.08L549.11,644.91L538.28,644.91L538.28,634.08L511.8,634.08ZM539.11,603L531,613.9L522.84,624.77L539.16,624.77L539.16,603L539.11,603Z" style="fill-rule:nonzero;stroke:black;stroke-width:2.47px;"/>
            </g>
            <g transform="matrix(1.22285,0,0,1.89418,-111.448,-365.531)">
                <path d="M788.4,466.7L663.72,466.7C656.711,466.695 650.945,460.929 650.94,453.92L650.94,326.12C650.945,319.111 656.711,313.345 663.72,313.34L788.4,313.34C795.409,313.345 801.175,319.111 801.18,326.12L801.18,453.92C801.175,460.929 795.409,466.695 788.4,466.7Z" style="fill:rgb(209,183,229);fill-rule:nonzero;stroke:black;stroke-width:2.47px;"/>
            </g>
            <g transform="matrix(1.22285,0,0,1.89418,-111.448,-365.531)">
                <path d="M771.5,390C771.5,390.001 771.5,390.001 771.5,390.002C771.5,414.93 750.988,435.442 726.06,435.442C701.132,435.442 680.62,414.93 680.62,390.002C680.62,365.074 701.132,344.562 726.06,344.562C738.106,344.562 749.672,349.352 758.19,357.87C766.722,366.379 771.515,377.95 771.5,390Z" style="fill:rgb(239,63,63);fill-rule:nonzero;stroke:black;stroke-width:2.47px;"/>
            </g>
            <g transform="matrix(1.22285,0,0,1.89418,-111.448,-365.531)">
                <path d="M730,392.14L736.29,385.24L742.59,378.34C743.179,377.695 743.505,376.853 743.505,375.98C743.505,374.06 741.925,372.48 740.005,372.48C739.022,372.48 738.083,372.894 737.42,373.62L725.42,386.88L719.42,380.18L713.42,373.47C712.8,372.777 711.928,372.36 711,372.31C710.074,372.249 709.162,372.563 708.47,373.18C707.777,373.8 707.36,374.672 707.31,375.6C707.249,376.527 707.567,377.44 708.19,378.13L714.39,385.13L720.6,392.13L714.31,399.03L708.01,405.93C707.387,406.617 707.059,407.523 707.1,408.45C707.161,409.84 708.049,411.067 709.35,411.56C710.69,412.065 712.21,411.703 713.18,410.65L719.23,404.02L725.23,397.39L731.23,404.1L737.23,410.8C737.566,411.176 737.979,411.476 738.44,411.68C738.884,411.874 739.365,411.973 739.85,411.97C740.267,411.973 740.68,411.898 741.07,411.75C741.479,411.604 741.856,411.38 742.18,411.09C742.872,410.474 743.29,409.605 743.34,408.68C743.402,407.754 743.088,406.842 742.47,406.15L736.26,399.15L730,392.14Z" style="fill:rgb(255,248,248);fill-rule:nonzero;stroke:black;stroke-width:2.47px;"/>
            </g>
            <g transform="matrix(1.22285,0,0,1.89418,-111.448,-365.531)">
                <path d="M263.47,366.47L172.07,366.47C163.257,366.443 156.016,359.193 156,350.38L156,259C156.011,250.179 163.269,242.925 172.09,242.92L263.49,242.92C272.304,242.931 279.55,250.186 279.55,259L279.55,350.4C279.545,359.221 272.291,366.479 263.47,366.49L263.47,366.47Z" style="fill:rgb(247,206,33);fill-rule:nonzero;stroke:black;stroke-width:2.47px;"/>
            </g>
            <g transform="matrix(1.22285,0,0,1.89418,-111.448,-365.531)">
                <path d="M205.66,285.88C205.665,287.05 205.2,288.175 204.37,289C203.539,289.835 202.408,290.305 201.23,290.305C198.8,290.305 196.8,288.305 196.8,285.875C196.8,283.445 198.8,281.445 201.23,281.445C203.66,281.445 205.66,283.445 205.66,285.875C205.66,285.877 205.66,285.878 205.66,285.88Z" style="fill-rule:nonzero;stroke:black;stroke-width:2.47px;"/>
            </g>
            <g transform="matrix(1.22285,0,0,1.89418,-111.448,-365.531)">
                <path d="M205.66,317C205.65,319.407 203.667,321.383 201.26,321.383C198.846,321.383 196.86,319.396 196.86,316.983C196.86,314.569 198.846,312.583 201.26,312.583C202.426,312.583 203.545,313.046 204.37,313.87C205.201,314.699 205.666,315.827 205.66,317Z" style="fill-rule:nonzero;stroke:black;stroke-width:2.47px;"/>
            </g>
            <g transform="matrix(1.22285,0,0,1.89418,-111.448,-365.531)">
                <path d="M238.72,275C235.467,277.171 232.566,279.828 230.12,282.88C219.583,295.411 219.562,313.875 230.07,326.43C232.522,329.528 235.441,332.226 238.72,334.43" style="fill:none;fill-rule:nonzero;stroke:black;stroke-width:2.47px;"/>
            </g>
            <g transform="matrix(1.22285,0,0,1.89418,-111.448,-365.531)">
                <path d="M534.72,321.66L505.59,322.25L476.47,322.84C477.095,330.664 478.753,338.371 481.4,345.76C487.051,361.743 497.762,375.456 511.9,384.81C515.89,387.446 520.103,389.728 524.49,391.63C527.698,386.035 530.329,380.128 532.34,374C534.433,367.614 535.861,361.029 536.6,354.35C537.218,348.806 537.366,343.219 537.04,337.65C536.716,332.264 535.94,326.916 534.72,321.66Z" style="fill-rule:nonzero;stroke:black;stroke-width:2.47px;"/>
            </g>
            <g transform="matrix(1.22285,0,0,1.89418,-111.448,-365.531)">
                <path d="M502.86,377.83C501.28,376.39 500.06,375.16 499.12,374.15C498.18,373.14 497.54,372.34 497.12,371.77C496.79,371.35 496.49,370.95 496.23,370.6C495.97,370.25 495.75,369.93 495.57,369.66C495.79,369.73 496.03,369.81 496.3,369.88C496.57,369.95 496.86,370.04 497.17,370.11L497.93,370.27C498.39,370.36 499,370.47 499.62,370.54C500.47,370.644 501.326,370.696 502.182,370.696C513.79,370.696 523.342,361.144 523.342,349.536C523.342,337.928 513.79,328.376 502.182,328.376C497.962,328.376 493.837,329.638 490.34,332C486.131,334.835 483.026,339.035 481.55,343.89C480.89,342.42 480.21,340.77 479.55,338.89C478.871,336.905 478.297,334.885 477.83,332.84C477.4,330.96 477.09,329.17 476.83,327.49C476.57,325.81 476.47,324.24 476.4,322.8L426.69,323.8L376.99,324.8C376.55,326.66 376.17,328.54 375.83,330.44C375.49,332.34 375.22,334.27 375,336.22C372.27,360.71 378.83,383.9 391.65,401.58C404.47,419.26 423.55,431.44 445.85,433.94C461.509,435.655 477.319,432.445 491.07,424.76C505.004,416.946 516.539,405.466 524.42,391.57C521.685,390.378 519.014,389.043 516.42,387.57C514.09,386.24 512.11,384.96 510.48,383.84C509.57,383.21 508.43,382.39 507.13,381.39C505.83,380.39 504.39,379.21 502.86,377.83Z" style="fill:rgb(255,192,192);fill-rule:nonzero;stroke:black;stroke-width:2.47px;"/>
            </g>
            <g transform="matrix(1.22285,0,0,1.89418,-111.448,-365.531)">
                <path d="M484.91,372.43C484.275,378.144 479.389,382.517 473.639,382.517C467.418,382.517 462.299,377.398 462.299,371.177C462.299,364.956 467.418,359.837 473.639,359.837C477.085,359.837 480.35,361.408 482.5,364.1C484.378,366.445 485.246,369.444 484.91,372.43Z" style="fill:rgb(239,63,63);fill-rule:nonzero;stroke:black;stroke-width:2.47px;"/>
            </g>
            <g transform="matrix(1.22285,0,0,1.89418,-111.448,-365.531)">
                <path d="M418.66,401.84C418.025,407.554 413.139,411.927 407.389,411.927C401.168,411.927 396.049,406.808 396.049,400.587C396.049,394.366 401.168,389.247 407.389,389.247C410.835,389.247 414.1,390.818 416.25,393.51C418.126,395.856 418.994,398.855 418.66,401.84Z" style="fill:rgb(239,63,63);fill-rule:nonzero;stroke:black;stroke-width:2.47px;"/>
            </g>
            <g transform="matrix(1.22285,0,0,1.89418,-111.448,-365.531)">
                <path d="M406.22,372.25C405.977,374.565 404.003,376.344 401.675,376.344C399.168,376.344 397.105,374.281 397.105,371.774C397.105,369.267 399.168,367.204 401.675,367.204C403.049,367.204 404.353,367.824 405.22,368.89C405.99,369.83 406.351,371.042 406.22,372.25Z" style="fill:rgb(35,31,32);fill-rule:nonzero;stroke:black;stroke-width:2.47px;"/>
            </g>
            <g transform="matrix(1.22285,0,0,1.89418,-111.448,-365.531)">
                <path d="M452,358.41C451.694,360.883 449.427,362.679 446.95,362.41C444.641,362.155 442.873,360.181 442.873,357.858C442.873,355.345 444.941,353.278 447.453,353.278C449.966,353.278 452.033,355.345 452.033,357.858C452.033,358.042 452.022,358.227 452,358.41Z" style="fill:rgb(35,31,32);fill-rule:nonzero;stroke:black;stroke-width:2.47px;"/>
            </g>
            <g transform="matrix(1.22285,0,0,1.89418,-111.448,-365.531)">
                <path d="M400.29,346C404.107,343.882 408.074,342.047 412.16,340.51C424.805,335.704 438.374,333.82 451.85,335" style="fill:none;fill-rule:nonzero;stroke:black;stroke-width:2.47px;"/>
            </g>
            <g transform="matrix(1.22285,0,0,1.89418,-111.448,-365.531)">
                <path d="M412.93,341.67L418.05,362.71L423.17,383.76L426.08,382.8L428.99,381.85" style="fill:none;fill-rule:nonzero;stroke:black;stroke-width:2.47px;"/>
            </g>
            <g transform="matrix(1.22285,0,0,1.89418,-111.448,-365.531)">
                <path d="M465.75,256.63C445.22,254.33 425.55,260.63 409.75,272.91C393.228,285.97 381.68,304.315 377.05,324.86L534.71,321.66C530.929,304.921 522.372,289.634 510.08,277.66C498.037,265.944 482.442,258.546 465.75,256.63Z" style="fill:rgb(249,133,28);fill-rule:nonzero;stroke:black;stroke-width:2.47px;"/>
            </g>
            <g transform="matrix(1.22285,0,0,1.89418,-111.448,-365.531)">
                <path d="M494.57,355.75L508.97,346.27" style="fill:none;fill-rule:nonzero;stroke:black;stroke-width:2.47px;"/>
            </g>
            <g transform="matrix(1.22285,0,0,1.89418,-111.448,-365.531)">
                <path d="M407,324.25C407.595,332.624 405.661,340.987 401.45,348.25C397.462,355.183 391.31,360.622 383.94,363.73C381.177,364.872 378.275,365.645 375.31,366.03C365.841,367.241 356.264,364.718 348.62,359C340.742,353.082 335.94,343.916 335.56,334.07C335.442,331.083 335.762,328.094 336.51,325.2C338.207,318.886 341.62,313.163 346.37,308.67C351.19,304.15 357.31,301.17 364.1,301.36C368.167,301.521 372.128,302.711 375.61,304.82C377.907,306.182 380.021,307.832 381.9,309.73C381.293,311.17 380.697,312.69 380.11,314.29C379.54,315.89 378.98,317.58 378.46,319.34C378.18,320.34 377.93,321.24 377.69,322.16C377.45,323.08 377.23,323.98 377.03,324.87L392.03,324.57L407,324.25Z" style="fill-rule:nonzero;stroke:black;stroke-width:2.47px;"/>
            </g>
            <g transform="matrix(1.22285,0,0,1.89418,-111.448,-365.531)">
                <path d="M387.57,298.33L525.99,298.57" style="fill:none;fill-rule:nonzero;stroke:black;stroke-width:2.47px;"/>
            </g>
            <g transform="matrix(1.22285,0,0,1.89418,-111.448,-365.531)">
                <path d="M408.5,298.37L407.06,311.32L405.61,324.28" style="fill:none;fill-rule:nonzero;stroke:black;stroke-width:2.47px;"/>
            </g>
            <g transform="matrix(1.22285,0,0,1.89418,-111.448,-365.531)">
                <path d="M435.83,298.61L433.09,323.09" style="fill:none;fill-rule:nonzero;stroke:black;stroke-width:2.47px;"/>
            </g>
            <g transform="matrix(1.22285,0,0,1.89418,-111.448,-365.531)">
                <path d="M469.19,298.99L467.84,311.01L466.5,323.04" style="fill:none;fill-rule:nonzero;stroke:black;stroke-width:2.47px;"/>
            </g>
            <g transform="matrix(1.22285,0,0,1.89418,-111.448,-365.531)">
                <path d="M503.21,299L501.94,310.38L500.67,321.77" style="fill:none;fill-rule:nonzero;stroke:black;stroke-width:2.47px;"/>
            </g>
            <g transform="matrix(1.22285,0,0,1.89418,-111.448,-365.531)">
                <path d="M434.46,406.34C434.889,404.768 435.499,403.251 436.28,401.82C437.433,399.7 438.993,397.827 440.87,396.31C443.762,394.026 447.259,392.635 450.93,392.31C454.815,391.955 458.727,392.577 462.31,394.12" style="fill:none;fill-rule:nonzero;stroke:black;stroke-width:2.47px;"/>
            </g>
            <g transform="matrix(1.22285,0,0,1.89418,-111.448,-365.531)">
                <path d="M627.32,596.08C625.067,595.824 622.833,595.426 620.63,594.89C618.428,594.353 616.267,593.665 614.16,592.83C612.951,592.355 611.772,591.808 610.63,591.19C609.478,590.555 608.377,589.829 607.34,589.02C601.59,584.56 597.05,578.95 592.8,573.09C588.55,567.23 584.55,561.09 579.91,555.65C578.123,553.542 575.495,552.325 572.732,552.325C568.128,552.325 564.167,555.704 563.44,560.25C563.354,560.806 563.327,561.369 563.36,561.93C563.386,562.488 563.456,563.043 563.57,563.59C565.01,570.67 566.64,578.23 568.32,585.91C570,593.59 571.72,601.41 573.32,608.99C575.332,618.386 569.723,627.868 560.52,630.63C546.24,634.9 530.08,639.25 513.52,643.27C496.96,647.29 480,651 464.15,653.9C462.314,654.207 460.516,654.713 458.79,655.41C456.459,656.335 454.422,657.877 452.9,659.87C451.38,662.024 450.487,664.559 450.32,667.19C450.174,669.301 450.302,671.422 450.7,673.5C448.299,673.679 445.982,674.468 443.97,675.79C442.091,677.018 440.627,678.785 439.77,680.86C439.409,681.738 439.164,682.659 439.04,683.6C438.825,685.142 439.001,686.713 439.55,688.17C440.432,690.334 442.022,692.136 444.06,693.28C446.334,694.572 448.915,695.228 451.53,695.18C450.052,696.366 448.919,697.927 448.25,699.7C447.589,701.451 447.416,703.349 447.75,705.19C447.75,705.32 447.8,705.45 447.83,705.58L447.92,705.95C448.461,707.969 449.688,709.737 451.39,710.95C453.095,712.17 455.144,712.818 457.24,712.8L463.08,712.8L468.92,712.75C468.312,714.172 467.895,715.668 467.68,717.2C467.373,719.128 467.677,721.104 468.55,722.85C469.764,724.892 471.686,726.419 473.95,727.14C475.9,727.798 477.909,728.264 479.95,728.53C488.68,729.841 497.478,730.655 506.3,730.97C514.7,731.33 522.05,731.34 526.3,731.32L634.66,731.04L655.58,730.5L676.5,729.95L664.5,600.43L645.91,598.29L627.32,596.08Z" style="fill:rgb(255,192,192);fill-rule:nonzero;stroke:black;stroke-width:2.47px;"/>
            </g>
            <g transform="matrix(1.22285,0,0,1.89418,-111.448,-365.531)">
                <path d="M450.7,673.5L494.62,666.61L538.53,659.72" style="fill:none;fill-rule:nonzero;stroke:black;stroke-width:2.47px;"/>
            </g>
            <g transform="matrix(1.22285,0,0,1.89418,-111.448,-365.531)">
                <path d="M451.53,695.18L497.02,689.58L542.52,683.99" style="fill:none;fill-rule:nonzero;stroke:black;stroke-width:2.47px;"/>
            </g>
            <g transform="matrix(1.22285,0,0,1.89418,-111.448,-365.531)">
                <path d="M468.92,712.68L505.72,709.59L542.52,706.49" style="fill:none;fill-rule:nonzero;stroke:black;stroke-width:2.47px;"/>
            </g>
            <g transform="matrix(1.22285,0,0,1.89418,-111.448,-365.531)">
                <path d="M303.6,603L257.82,679.5C257.812,679.51 257.807,679.522 257.807,679.535C257.807,679.564 257.831,679.588 257.86,679.588C257.875,679.588 257.89,679.582 257.9,679.57L281.18,661.69L304.47,643.8L304.03,623.4L303.6,603Z" style="fill-rule:nonzero;stroke:black;stroke-width:2.47px;"/>
            </g>
        </g>
    </g>
</svg>
