<?xml version="1.0" encoding="UTF-8" standalone="no"?>
<!DOCTYPE svg PUBLIC "-//W3C//DTD SVG 1.1//EN" "http://www.w3.org/Graphics/SVG/1.1/DTD/svg11.dtd">
<svg width="100%" height="100%" viewBox="0 0 1080 1080" version="1.1" xmlns="http://www.w3.org/2000/svg" xmlns:xlink="http://www.w3.org/1999/xlink" xml:space="preserve" xmlns:serif="http://www.serif.com/" style="fill-rule:evenodd;clip-rule:evenodd;stroke-linecap:round;stroke-miterlimit:10;">
    <rect id="Artboard1" x="0" y="0" width="1080" height="1080" style="fill:none;"/>
    <clipPath id="_clip1">
        <rect id="Artboard11" serif:id="Artboard1" x="0" y="0" width="1080" height="1080"/>
    </clipPath>
    <g clip-path="url(#_clip1)">
        <rect x="-114.019" y="-85.709" width="1618" height="722" style="fill:rgb(189,220,232);"/>
        <g id="drawkit-transport-scene-9.svg" transform="matrix(3.3761,0,0,3.3761,254.821,153.009)">
            <g transform="matrix(1,0,0,1,-2020.53,-1166.99)">
                <g id="Layer_2">
                    <g id="Слой_1">
                        <g id="DOOR">
                        </g>
                        <g id="WINDOW">
                        </g>
                        <g id="SEAT">
                            <path d="M2086.85,1152.81L2139.85,1152.81C2241.14,1152.81 2324.48,1236.15 2324.48,1337.44L2324.48,1488.83C2324.48,1510.41 2306.72,1528.17 2285.14,1528.17L1941.56,1528.17C1919.98,1528.17 1902.22,1510.41 1902.22,1488.83L1902.22,1337.44C1902.22,1236.15 1985.57,1152.81 2086.85,1152.81Z" style="fill:rgb(189,220,232);fill-rule:nonzero;"/>
                        </g>
                        <g id="POSTERS">
                        </g>
                        <g id="_4_CHARACTER">
                        </g>
                        <g id="HANDRAIL">
                        </g>
                        <g id="_3_CHARACTER">
                            <path id="T-SHIRT" d="M2195.79,1534.21L2031,1534.21C1961.44,1534.21 1911.45,1467.29 1931.19,1400.58C1955,1320.08 2029.47,1264.46 2113.42,1264.47C2197.36,1264.48 2271.82,1320.09 2295.65,1400.58C2315.35,1467.29 2265.36,1534.21 2195.79,1534.21Z" style="fill:rgb(255,194,0);fill-rule:nonzero;"/>
                            <g id="LEGS-2">
                            </g>
                            <g id="HAND-2">
                                <g id="BEAR">
                                    <path d="M2107,1422.71C2029.89,1428.91 1983.28,1388.56 2004.68,1366.71C2022.22,1348.77 2064.68,1377.71 2085.11,1393.55C2088.6,1404.79 2096.32,1415.12 2107,1422.71Z" style="fill:white;fill-rule:nonzero;"/>
                                    <g transform="matrix(0.250211,-0.968191,0.968191,0.250211,304.2,3042.39)">
                                        <ellipse cx="2116.32" cy="1324.8" rx="17.9" ry="17.03" style="fill:white;"/>
                                    </g>
                                    <path d="M2116.17,1335.55C2115.52,1338.08 2114.21,1340.38 2112.39,1342.25C2112.2,1342.22 2112.02,1342.18 2111.84,1342.13C2102.74,1339.77 2097.36,1330.13 2099.84,1320.54C2100.16,1319.31 2100.6,1318.11 2101.15,1316.96C2101.35,1316.95 2101.55,1316.95 2101.74,1316.95C2109.91,1316.95 2116.62,1323.66 2116.62,1331.83C2116.62,1333.08 2116.46,1334.33 2116.15,1335.55L2116.17,1335.55Z" style="fill:rgb(206,228,237);fill-rule:nonzero;"/>
                                    <g transform="matrix(0.250211,-0.968191,0.968191,0.250211,342.72,3131.98)">
                                        <ellipse cx="2193.43" cy="1344.72" rx="17.9" ry="17.03" style="fill:white;"/>
                                    </g>
                                    <path d="M2210.27,1347.22C2210.18,1347.81 2210.06,1348.39 2209.91,1348.98C2207.44,1358.55 2198.05,1364.4 2188.91,1362.05C2188.1,1361.84 2187.3,1361.56 2186.53,1361.23C2186.48,1359.64 2186.65,1358.04 2187.05,1356.5C2189.22,1348.08 2197.48,1342.94 2205.5,1345.01C2207.21,1345.44 2208.83,1346.19 2210.27,1347.22Z" style="fill:rgb(206,228,237);fill-rule:nonzero;"/>
                                    <g transform="matrix(0.250211,-0.968191,0.968191,0.250211,265.88,3111.94)">
                                        <ellipse cx="2142.07" cy="1384.32" rx="50.32" ry="59.47" style="fill:white;"/>
                                    </g>
                                    <g transform="matrix(0.25,-0.97,0.97,0.25,251.04,3084.26)">
                                        <ellipse cx="2116.78" cy="1380.05" rx="3.81" ry="3.63" style="fill:rgb(89,34,29);"/>
                                    </g>
                                    <g transform="matrix(0.250211,-0.968191,0.968191,0.250211,274.99,3140.81)">
                                        <ellipse cx="2165.26" cy="1392.87" rx="3.81" ry="3.63" style="fill:rgb(89,34,29);"/>
                                    </g>
                                </g>
                                <g id="HAND-3">
                                    <path d="M2236.77,1501C2265.77,1497.7 2283.89,1468.72 2277.19,1444.81C2268.68,1414.48 2242.19,1407.43 2213.26,1410.64C2179.7,1414.37 2100.26,1420.54 2026.14,1409.38C2026.14,1409.38 2008.07,1462.76 2054.59,1486.48C2071.69,1495.15 2164.58,1509.2 2236.77,1501Z" style="fill:rgb(167,70,2);fill-rule:nonzero;"/>
                                    <path d="M2026.65,1411.63C2026.65,1411.63 2008.32,1464.19 2058.47,1490.5" style="fill:none;fill-rule:nonzero;stroke:rgb(89,34,29);stroke-width:4px;"/>
                                    <path d="M2026.62,1411.5C2026.62,1411.5 2026.39,1429.21 2050.43,1429.66" style="fill:none;fill-rule:nonzero;stroke:rgb(89,34,29);stroke-width:4px;"/>
                                    <path d="M2024,1429.23C2024,1429.23 2025.08,1446.64 2049.11,1447.09" style="fill:none;fill-rule:nonzero;stroke:rgb(89,34,29);stroke-width:4px;"/>
                                    <path d="M2024.09,1443.27C2024.09,1443.27 2024.8,1462.99 2048.79,1463.16" style="fill:none;fill-rule:nonzero;stroke:rgb(89,34,29);stroke-width:4px;"/>
                                </g>
                            </g>
                            <g id="HEAD-3">
                                <g id="NECK-2">
                                    <path d="M2155.83,1269.26C2150.77,1283.68 2133.71,1294.26 2113.44,1294.26C2093.17,1294.26 2076.08,1283.64 2071.04,1269.2C2076.57,1267.95 2082.18,1266.95 2087.87,1266.2L2087.87,1235.83L2143.53,1235.83L2143.53,1266.83C2147.67,1267.52 2151.77,1268.33 2155.83,1269.26Z" style="fill:rgb(167,70,2);fill-rule:nonzero;"/>
                                    <path d="M2128.75,1259.82C2137.5,1254.13 2143.53,1246.25 2143.53,1235.82L2087.87,1235.82L2087.87,1266.82C2087.87,1266.82 2113,1270.08 2128.75,1259.82Z" style="fill:rgb(89,34,29);fill-rule:nonzero;"/>
                                </g>
                                <g id="CAP">
                                    <path d="M2154.07,1202.42L2137.92,1202.42L2107.29,1163.42L2124.7,1163.42C2140.81,1163.42 2154.07,1176.67 2154.07,1192.78L2154.07,1202.42Z" style="fill:rgb(255,194,0);fill-rule:nonzero;"/>
                                    <path d="M2081.15,1196.49L2135.28,1196.43L2109.58,1162.81C2101.41,1151.41 2089.25,1144.65 2075.22,1144.65L2074.22,1144.65C2058.88,1144.65 2049.64,1162.24 2058.9,1174.48C2061.74,1178.23 2081.15,1196.49 2081.15,1196.49Z" style="fill:white;fill-rule:nonzero;stroke:rgb(255,194,0);stroke-width:4px;stroke-linecap:butt;"/>
                                </g>
                                <g id="HEAD-4">
                                    <path id="HEAD-5" d="M2166.88,1217.6L2166.88,1220.6C2166.88,1228.93 2160.03,1235.78 2151.7,1235.78L2137.47,1235.78C2132.47,1249.45 2119.39,1258.59 2104.84,1258.59L2100.2,1258.59C2100.2,1258.59 2100.19,1258.59 2100.19,1258.59C2086.38,1258.59 2075.02,1247.23 2075.02,1233.42L2075.02,1208.68C2075.03,1194.26 2086.89,1182.4 2101.31,1182.4C2103.08,1182.4 2104.84,1182.58 2106.57,1182.93L2112.16,1184.07C2122.49,1186.19 2131.28,1192.95 2135.98,1202.38L2151.7,1202.38C2160.03,1202.38 2166.88,1209.23 2166.88,1217.56C2166.88,1217.57 2166.88,1217.59 2166.88,1217.6Z" style="fill:rgb(167,70,2);fill-rule:nonzero;"/>
                                    <path id="EAR" d="M2144.35,1221.06C2144.35,1215.2 2149.17,1210.38 2155.03,1210.38" style="fill:none;fill-rule:nonzero;stroke:rgb(89,34,29);stroke-width:4px;"/>
                                    <path id="HAIR-2" d="M2146.28,1202.42C2140.75,1202.42 2135.44,1204.66 2131.58,1208.62C2130.83,1209.41 2129.78,1209.86 2128.69,1209.86C2128.68,1209.86 2128.67,1209.86 2128.66,1209.86C2126.42,1209.86 2124.58,1208.02 2124.58,1205.78L2124.58,1205.66C2124.59,1201.49 2122.95,1197.49 2120.03,1194.52C2064.12,1208.4 2061.55,1176.52 2075.03,1170.68C2086.59,1165.68 2115.66,1182.95 2126.32,1189.68L2146.28,1202.42Z" style="fill:rgb(89,34,29);fill-rule:nonzero;"/>
                                    <g id="FACE-2">
                                        <path d="M2076,1206.78C2076,1206.78 2083.68,1204.78 2088.79,1210.38C2092.58,1214.52 2092.1,1229.71 2092.1,1229.71" style="fill:none;fill-rule:nonzero;stroke:rgb(89,34,29);stroke-width:4px;"/>
                                        <path d="M2102.34,1207.41C2102.34,1207.41 2113.13,1205.35 2118.76,1209.87" style="fill:none;fill-rule:nonzero;stroke:rgb(89,34,29);stroke-width:4px;"/>
                                        <ellipse cx="2080.85" cy="1219.59" rx="2.59" ry="4.37" style="fill:rgb(89,34,29);"/>
                                        <ellipse cx="2108.05" cy="1219.59" rx="2.59" ry="4.37" style="fill:rgb(89,34,29);"/>
                                    </g>
                                </g>
                            </g>
                        </g>
                        <g id="_2_CHARACTER">
                        </g>
                        <g id="_1_CHARACTER">
                        </g>
                    </g>
                </g>
            </g>
        </g>
    </g>
</svg>
